<svg width="62" height="38" viewBox="0 0 62 38" fill="none" xmlns="http://www.w3.org/2000/svg">
<path d="M59 1H3C1.89543 1 1 1.89543 1 3V35C1 36.1046 1.89543 37 3 37H59C60.1046 37 61 36.1046 61 35V3C61 1.89543 60.1046 1 59 1Z" stroke="#E6E6E6"/>
<path d="M51.746 14L54 18.117L49.262 22.2417L51.746 14Z" fill="#2B8B4B"/>
<path d="M50.1667 14L52.4207 18.117L47.6827 22.2417L50.1667 14Z" fill="#F47920"/>
<path d="M19.0171 21.9657C19.2394 21.8047 19.3851 21.613 19.4541 21.383L20.2054 18.9143C20.2744 18.692 20.2437 18.5003 20.1134 18.347C19.9831 18.1937 19.7991 18.117 19.5461 18.117C19.7914 18.117 20.0291 18.0403 20.2514 17.8793C20.4737 17.726 20.6194 17.5343 20.6807 17.3043L21.4321 14.8357C21.5011 14.598 21.4781 14.3987 21.3554 14.2377C21.2327 14.0767 21.0411 14 20.7881 14H11.0207L8.53673 22.1803H18.3117C18.5571 22.2033 18.7947 22.1267 19.0171 21.9657ZM12.3087 15.6177H16.9777H18.4421H18.7487C18.9251 15.656 19.0707 15.7633 19.1551 15.909C19.1857 16.0087 19.2011 16.116 19.2011 16.2233C19.2011 16.2847 19.1934 16.3383 19.1857 16.392L19.1704 16.4457L19.1091 16.6527C18.9404 17.013 18.5801 17.2737 18.1431 17.3197H17.8441H11.7951L12.3087 15.6177ZM18.1047 19.98C17.9284 20.3173 17.5834 20.555 17.1617 20.6087H16.8551H10.7984L11.3121 18.922H15.9811H17.4224H17.7367C17.9744 18.9757 18.1507 19.1443 18.2044 19.359C18.2121 19.405 18.2197 19.4587 18.2197 19.5047C18.2197 19.5277 18.2197 19.5583 18.2121 19.5813V19.612L18.1047 19.98ZM33.4304 14.0307L30.9924 22.188H29.2367L30.2181 18.9143H23.1647L22.1834 22.188H20.4354L22.8734 14.0307H24.6291L23.6477 17.3197H30.7011L31.6824 14.0307H33.4304ZM33.9441 22.211H32.1807L34.6341 14.0613H36.3974L33.9441 22.211ZM48.6717 14.046L47.9434 16.4687L46.2337 22.1727H44.4781L45.6357 18.278L41.0051 22.1803L38.2067 17.772L36.8881 22.1727H35.1324L37.0184 15.8937L37.5704 14.0383H37.6011L38.7817 15.84L41.3347 19.7423L48.6717 14.046Z" fill="#6D6E71"/>
<path d="M8 24.3968L8.31433 23.1932H8.667C8.76667 23.1932 8.84333 23.1932 8.88167 23.2085C8.92767 23.2162 8.966 23.2315 8.989 23.2545C9.02733 23.2852 9.05033 23.3158 9.058 23.3618C9.07333 23.4078 9.07333 23.4538 9.058 23.5075C9.04267 23.5688 9.012 23.6225 8.966 23.6685C8.92 23.7145 8.86633 23.7452 8.79733 23.7605C8.874 23.7682 8.92767 23.8065 8.966 23.8602C8.99667 23.9138 9.00433 23.9828 8.98133 24.0595C8.966 24.1055 8.95067 24.1515 8.91233 24.1975C8.88167 24.2435 8.84333 24.2818 8.79733 24.3125C8.75133 24.3432 8.69767 24.3662 8.63633 24.3815C8.575 24.3968 8.483 24.4045 8.345 24.4045H8V24.3968ZM8.26067 24.2358H8.33733C8.414 24.2358 8.47533 24.2358 8.51367 24.2282C8.552 24.2205 8.59033 24.2128 8.61333 24.1975C8.644 24.1822 8.67467 24.1592 8.69767 24.1362C8.72067 24.1055 8.736 24.0825 8.74367 24.0442C8.75133 24.0058 8.75133 23.9752 8.74367 23.9445C8.736 23.9138 8.713 23.8908 8.68233 23.8755C8.65933 23.8678 8.63633 23.8602 8.61333 23.8525C8.58267 23.8525 8.552 23.8448 8.506 23.8448H8.437H8.36033L8.26067 24.2358ZM8.39867 23.6992H8.483C8.59033 23.6992 8.667 23.6838 8.72067 23.6608C8.77433 23.6378 8.805 23.5918 8.82033 23.5305C8.83567 23.4615 8.828 23.4155 8.79733 23.3925C8.759 23.3695 8.69 23.3542 8.575 23.3542H8.49067L8.39867 23.6992ZM9.932 24.3968L10.0853 23.8142H10.7677L10.6143 24.3968H10.8367L11.151 23.1932H10.9287L10.8137 23.6378H10.1313L10.2463 23.1932H10.024L9.70967 24.3968H9.932ZM12.669 24.3968L12.5923 24.0825H12.0403L11.8027 24.3968H11.565L12.5617 23.1395L12.9067 24.3968H12.669ZM12.163 23.9215H12.554L12.485 23.6455C12.485 23.6302 12.4773 23.6072 12.4773 23.5842C12.4773 23.5612 12.4697 23.5382 12.4697 23.5075C12.4543 23.5305 12.439 23.5612 12.4237 23.5842C12.4083 23.6072 12.393 23.6302 12.3777 23.6455L12.163 23.9215ZM13.9723 23.8602L13.8343 24.3968H13.6197L13.934 23.1932H14.2483C14.3403 23.1932 14.4093 23.2008 14.463 23.2085C14.509 23.2162 14.5473 23.2392 14.578 23.2622C14.6163 23.2928 14.6393 23.3312 14.647 23.3772C14.6547 23.4232 14.6547 23.4768 14.6393 23.5305C14.6163 23.6302 14.5703 23.6992 14.5013 23.7605C14.4323 23.8142 14.348 23.8525 14.2407 23.8602L14.578 24.4122H14.325L14.003 23.8755H13.9723V23.8602ZM14.026 23.7068H14.0643C14.1793 23.7068 14.2637 23.6915 14.3097 23.6685C14.3557 23.6455 14.3863 23.5995 14.4017 23.5382C14.417 23.4692 14.4093 23.4232 14.3787 23.4002C14.3403 23.3695 14.2713 23.3618 14.1563 23.3618H14.118L14.026 23.7068ZM16.211 24.3968L16.1343 24.0825H15.5823L15.337 24.3968H15.0993L16.096 23.1395L16.441 24.3968H16.211ZM15.7127 23.9215H16.1037L16.0347 23.6455C16.027 23.6302 16.027 23.6072 16.027 23.5842C16.027 23.5612 16.0193 23.5382 16.0193 23.5075C16.004 23.5305 15.9887 23.5612 15.981 23.5842C15.9657 23.6072 15.9503 23.6302 15.935 23.6455L15.7127 23.9215ZM18.1507 23.3542L18.1967 23.1855H17.2307L17.1847 23.3542H17.5527L17.2843 24.3968H17.5067L17.775 23.3542H18.1507ZM20.0443 24.3968L20.3587 23.1932H20.1287L19.8143 24.3968H20.0443ZM21.1637 24.3968L21.386 23.5612C21.4013 23.5842 21.4167 23.6072 21.432 23.6302C21.4473 23.6532 21.4703 23.6762 21.4857 23.6915L22.191 24.4428L22.5207 23.1932H22.3137L22.099 24.0288C22.076 23.9982 22.0607 23.9752 22.0453 23.9445C22.03 23.9215 22.007 23.8985 21.9917 23.8755L21.3017 23.1395L20.972 24.3968H21.1637ZM24.192 23.3542L24.2303 23.1855H23.272L23.226 23.3542H23.594L23.3257 24.3968H23.5557L23.824 23.3542H24.192ZM25.457 24.3968L25.503 24.2205H24.951L25.0507 23.8295H25.6027L25.6487 23.6608H25.0967L25.1733 23.3542H25.7253L25.7713 23.1855H24.9893L24.675 24.3892H25.457V24.3968ZM26.653 23.8602L26.515 24.3968H26.3003L26.6147 23.1932H26.929C27.021 23.1932 27.09 23.2008 27.136 23.2085C27.182 23.2162 27.2203 23.2392 27.251 23.2622C27.2893 23.2928 27.3123 23.3312 27.32 23.3772C27.3277 23.4232 27.3277 23.4768 27.3123 23.5305C27.2893 23.6302 27.2433 23.6992 27.1743 23.7605C27.1053 23.8142 27.021 23.8525 26.9137 23.8602L27.251 24.4122H26.998L26.676 23.8755H26.653V23.8602ZM26.7067 23.7068H26.745C26.8677 23.7068 26.9443 23.6915 26.9903 23.6685C27.0363 23.6455 27.067 23.5995 27.0823 23.5382C27.0977 23.4692 27.09 23.4232 27.0593 23.4002C27.021 23.3695 26.952 23.3618 26.837 23.3618H26.7987L26.7067 23.7068ZM28.2017 24.3968L28.3473 23.8295H28.8993L28.9453 23.6608H28.3933L28.47 23.3618H29.022L29.068 23.1932H28.2937L27.9793 24.3968H28.2017ZM30.4327 24.3968L30.356 24.0825H29.804L29.5587 24.3968H29.321L30.3177 23.1395L30.6627 24.3968H30.4327ZM29.9267 23.9215H30.3177L30.2487 23.6455C30.241 23.6302 30.241 23.6072 30.241 23.5842C30.241 23.5612 30.2333 23.5382 30.2333 23.5075C30.218 23.5305 30.2027 23.5612 30.1873 23.5842C30.172 23.6072 30.1567 23.6302 30.149 23.6455L29.9267 23.9215ZM32.771 23.2852C32.7097 23.2468 32.6483 23.2162 32.5793 23.1932C32.5103 23.1702 32.4337 23.1625 32.3493 23.1625C32.2497 23.1625 32.15 23.1778 32.0503 23.2085C31.9507 23.2392 31.8587 23.2852 31.782 23.3465C31.6977 23.4078 31.6287 23.4768 31.5673 23.5535C31.5137 23.6302 31.4677 23.7145 31.4447 23.7988C31.4217 23.8908 31.4217 23.9675 31.437 24.0518C31.4523 24.1285 31.4907 24.1975 31.5367 24.2588C31.5903 24.3202 31.6593 24.3585 31.7437 24.3892C31.828 24.4198 31.92 24.4352 32.0273 24.4352C32.1117 24.4352 32.1883 24.4275 32.265 24.4045C32.3417 24.3892 32.4183 24.3585 32.4873 24.3202L32.541 24.0978C32.4567 24.1515 32.38 24.1898 32.2957 24.2128C32.2113 24.2358 32.1347 24.2512 32.0503 24.2512C31.9123 24.2512 31.805 24.2052 31.736 24.1208C31.667 24.0365 31.644 23.9292 31.6823 23.7988C31.7207 23.6608 31.7973 23.5535 31.9123 23.4692C32.0273 23.3848 32.1653 23.3388 32.3187 23.3388C32.3953 23.3388 32.472 23.3542 32.5333 23.3772C32.5947 23.4002 32.656 23.4385 32.7097 23.4845L32.771 23.2852ZM34.1127 24.3968L34.1587 24.2205H33.6067L33.7063 23.8295H34.2583L34.3043 23.6608H33.7523L33.829 23.3542H34.381L34.427 23.1855H33.6527L33.3383 24.3892H34.1127V24.3968ZM36.359 24.3968L36.5047 23.8295H37.0567L37.1027 23.6608H36.5507L36.6273 23.3618H37.1793L37.2253 23.1932H36.451L36.1367 24.3968H36.359ZM39.3183 23.7988C39.2953 23.8832 39.257 23.9675 39.1957 24.0442C39.142 24.1208 39.0653 24.1898 38.981 24.2512C38.8967 24.3125 38.8047 24.3585 38.705 24.3892C38.6053 24.4198 38.5057 24.4352 38.4137 24.4352C38.314 24.4352 38.222 24.4198 38.1377 24.3892C38.0533 24.3585 37.9843 24.3125 37.9307 24.2512C37.877 24.1898 37.8387 24.1208 37.8233 24.0518C37.808 23.9752 37.808 23.8908 37.831 23.8065C37.854 23.7222 37.8923 23.6378 37.946 23.5612C37.9997 23.4845 38.0763 23.4155 38.1607 23.3542C38.245 23.2928 38.337 23.2468 38.4367 23.2162C38.5363 23.1855 38.636 23.1702 38.7357 23.1702C38.8353 23.1702 38.9273 23.1855 39.0117 23.2162C39.096 23.2468 39.1573 23.2928 39.2187 23.3542C39.2723 23.4155 39.3107 23.4845 39.326 23.5612C39.3413 23.6302 39.3413 23.7145 39.3183 23.7988ZM39.0807 23.7988C39.096 23.7375 39.096 23.6762 39.0883 23.6225C39.0807 23.5688 39.0577 23.5152 39.0193 23.4768C38.981 23.4308 38.935 23.4002 38.8813 23.3772C38.8277 23.3542 38.7663 23.3465 38.6973 23.3465C38.6283 23.3465 38.5593 23.3542 38.498 23.3772C38.429 23.4002 38.3677 23.4308 38.3063 23.4768C38.245 23.5152 38.199 23.5688 38.1607 23.6225C38.1223 23.6762 38.0917 23.7375 38.0763 23.7988C38.061 23.8602 38.061 23.9215 38.0687 23.9752C38.0763 24.0288 38.107 24.0825 38.1377 24.1208C38.176 24.1668 38.222 24.1975 38.2757 24.2205C38.3293 24.2435 38.3907 24.2512 38.4597 24.2512C38.5287 24.2512 38.5977 24.2358 38.659 24.2205C38.728 24.1975 38.7893 24.1668 38.8507 24.1208C38.912 24.0748 38.958 24.0288 39.004 23.9752C39.0347 23.9138 39.0653 23.8602 39.0807 23.7988ZM40.361 23.8602L40.223 24.3968H40.0083L40.3227 23.1932H40.637C40.729 23.1932 40.798 23.2008 40.8517 23.2085C40.8977 23.2162 40.936 23.2392 40.9667 23.2622C41.005 23.2928 41.028 23.3312 41.0357 23.3772C41.0434 23.4232 41.0433 23.4768 41.028 23.5305C41.005 23.6302 40.959 23.6992 40.89 23.7605C40.821 23.8142 40.7367 23.8525 40.6293 23.8602L40.9667 24.4122H40.7137L40.3917 23.8755H40.361V23.8602ZM40.4147 23.7068H40.453C40.5757 23.7068 40.6523 23.6915 40.6983 23.6685C40.7443 23.6455 40.775 23.5995 40.7903 23.5382C40.8057 23.4692 40.798 23.4232 40.7673 23.4002C40.729 23.3695 40.66 23.3618 40.545 23.3618H40.5067L40.4147 23.7068ZM44.1407 24.3968H44.3477L44.34 23.1395L43.742 23.8985L43.719 23.9292C43.673 23.9828 43.6423 24.0288 43.6193 24.0595C43.6117 24.0212 43.604 23.9828 43.5963 23.9522C43.5887 23.9215 43.5887 23.9062 43.581 23.8908L43.374 23.1318L42.7147 24.3892H42.9217L43.2283 23.7912C43.2437 23.7605 43.259 23.7298 43.2667 23.7068C43.2743 23.6762 43.2897 23.6532 43.2973 23.6302C43.2973 23.6532 43.305 23.6838 43.305 23.7068C43.3127 23.7298 43.3127 23.7605 43.3203 23.7835L43.512 24.4428L44.041 23.7988C44.064 23.7682 44.087 23.7452 44.1023 23.7145C44.1177 23.6838 44.133 23.6608 44.1483 23.6302C44.1483 23.6532 44.1407 23.6838 44.1407 23.7145C44.133 23.7605 44.133 23.7835 44.133 23.7912V24.3968H44.1407ZM46.7013 23.7988C46.6783 23.8832 46.64 23.9675 46.5863 24.0442C46.5327 24.1208 46.456 24.1898 46.3717 24.2512C46.2873 24.3125 46.1954 24.3585 46.0957 24.3892C45.996 24.4198 45.8963 24.4352 45.7967 24.4352C45.697 24.4352 45.605 24.4198 45.5207 24.3892C45.4364 24.3585 45.3673 24.3125 45.3137 24.2512C45.26 24.1898 45.2217 24.1208 45.2063 24.0518C45.191 23.9752 45.191 23.8908 45.214 23.8065C45.237 23.7222 45.2753 23.6378 45.329 23.5612C45.3827 23.4845 45.4594 23.4155 45.5437 23.3542C45.628 23.2928 45.72 23.2468 45.8197 23.2162C45.9193 23.1855 46.019 23.1702 46.1187 23.1702C46.2183 23.1702 46.3103 23.1855 46.387 23.2162C46.4714 23.2468 46.5404 23.2928 46.594 23.3542C46.6477 23.4155 46.686 23.4845 46.7013 23.5612C46.7243 23.6302 46.7243 23.7145 46.7013 23.7988ZM46.4637 23.7988C46.479 23.7375 46.479 23.6762 46.4713 23.6225C46.4637 23.5688 46.433 23.5152 46.4024 23.4768C46.364 23.4308 46.318 23.4002 46.2643 23.3772C46.2107 23.3542 46.1493 23.3465 46.0803 23.3465C46.0113 23.3465 45.9423 23.3542 45.8733 23.3772C45.8043 23.4002 45.743 23.4308 45.6817 23.4768C45.6203 23.5152 45.5743 23.5688 45.536 23.6225C45.4977 23.6762 45.467 23.7375 45.4517 23.7988C45.4363 23.8602 45.4364 23.9215 45.444 23.9752C45.4594 24.0288 45.4823 24.0825 45.513 24.1208C45.5513 24.1668 45.5973 24.1975 45.651 24.2205C45.7047 24.2435 45.766 24.2512 45.835 24.2512C45.904 24.2512 45.973 24.2358 46.042 24.2205C46.111 24.1975 46.1723 24.1668 46.2337 24.1208C46.295 24.0748 46.341 24.0288 46.3793 23.9752C46.4177 23.9138 46.4483 23.8602 46.4637 23.7988ZM47.5984 24.3968L47.813 23.5612C47.8284 23.5842 47.8437 23.6072 47.859 23.6302C47.8744 23.6532 47.8897 23.6762 47.9127 23.6915L48.618 24.4428L48.9477 23.1932H48.7407L48.526 24.0288C48.503 23.9982 48.4877 23.9752 48.4647 23.9445C48.4493 23.9215 48.4263 23.8985 48.411 23.8755L47.721 23.1395L47.3913 24.3968H47.5984ZM50.3124 24.3968L50.3583 24.2205H49.8064L49.906 23.8295H50.458L50.504 23.6608H49.952L50.0287 23.3542H50.5807L50.6267 23.1855H49.8524L49.538 24.3892H50.3124V24.3968ZM51.6847 24.3968L51.8304 23.8448L52.482 23.1932H52.252L51.8457 23.5995C51.8304 23.6148 51.815 23.6302 51.7997 23.6455C51.7844 23.6608 51.769 23.6838 51.7537 23.6992C51.746 23.6762 51.746 23.6608 51.7383 23.6455C51.7307 23.6302 51.723 23.6148 51.723 23.6072L51.539 23.2008H51.3013L51.6004 23.8525L51.4547 24.4045H51.6847V24.3968Z" fill="#6D6E71"/>
</svg>
