<svg width="62" height="38" viewBox="0 0 62 38" fill="none" xmlns="http://www.w3.org/2000/svg">
<path d="M59 1H3C1.89543 1 1 1.89543 1 3V35C1 36.1046 1.89543 37 3 37H59C60.1046 37 61 36.1046 61 35V3C61 1.89543 60.1046 1 59 1Z" stroke="#E6E6E6"/>
<path d="M23.6202 18.0922C24.663 18.0922 25.521 17.4916 25.7652 16.4554L25.0788 16.3102C24.8808 17.056 24.3132 17.4256 23.6202 17.4256C22.7292 17.4256 22.0296 16.7194 22.0296 15.7888C22.0296 14.8582 22.7292 14.152 23.6202 14.152C24.3132 14.152 24.8808 14.5216 25.0788 15.2674L25.7652 15.0694C25.5144 14.0926 24.663 13.4854 23.6202 13.4854C22.3332 13.4854 21.3168 14.5018 21.3168 15.7888C21.3168 17.0824 22.3332 18.0922 23.6202 18.0922ZM26.8806 17.9998L27.3162 16.9702H29.4678L29.9034 17.9998H30.669L28.722 13.5778H28.062L26.115 17.9998H26.8806ZM29.1906 16.3234H27.5934L28.392 14.4424L29.1906 16.3234ZM32.847 18.0922C33.8634 18.0922 34.5432 17.5708 34.5432 16.7392C34.5432 16.0462 34.068 15.6766 33.408 15.5314L32.451 15.3268C32.0682 15.2476 31.89 15.0826 31.89 14.7724C31.89 14.383 32.2332 14.0992 32.7546 14.0992C33.2826 14.0992 33.6852 14.4094 33.7644 14.878L34.4706 14.7328C34.3122 13.9738 33.6654 13.4854 32.7678 13.4854C31.7844 13.4854 31.1442 14.0134 31.1442 14.7922C31.1442 15.5776 31.7118 15.868 32.2596 15.9934L33.2232 16.1914C33.6654 16.2838 33.8436 16.4422 33.8436 16.7788C33.8436 17.1814 33.507 17.4652 32.913 17.4652C32.319 17.4652 31.8768 17.188 31.7712 16.6204L31.0188 16.7788C31.131 17.6368 31.9098 18.0922 32.847 18.0922ZM36.114 17.9998V16.099H38.5032V17.9998H39.2094V13.5778H38.5032V15.4522H36.114V13.5778H35.4078V17.9998H36.114ZM43.9812 18.0922C45.2748 18.0922 46.2912 17.0758 46.2912 15.7954C46.2912 14.5084 45.2748 13.4854 43.9812 13.4854C42.6876 13.4854 41.6778 14.5084 41.6778 15.7954C41.6778 17.0758 42.6876 18.0922 43.9812 18.0922ZM43.9812 17.4256C43.0902 17.4256 42.3906 16.726 42.3906 15.7954C42.3906 14.8582 43.0902 14.152 43.9812 14.152C44.8788 14.152 45.5784 14.8582 45.5784 15.7954C45.5784 16.726 44.8788 17.4256 43.9812 17.4256ZM47.829 17.9998V14.8252L50.502 17.9998H51.1026V13.5778H50.3898V16.8052L47.7234 13.5778H47.1228V17.9998H47.829Z" fill="#EE741F"/>
<path d="M23.0658 25.0001C24.5706 25.0001 25.5078 24.0761 25.5078 22.7891C25.5078 21.5021 24.5706 20.5781 23.0658 20.5781H21.5214V25.0001H23.0658ZM23.0658 24.3599H22.2276V21.2183H23.0658C24.1416 21.2183 24.795 21.8717 24.795 22.7891C24.795 23.7065 24.1416 24.3599 23.0658 24.3599ZM29.6328 25.0001V24.3599H27.0456V23.0993H29.4282V22.4657H27.0456V21.2183H29.6262V20.5781H26.3394V25.0001H29.6328ZM33.6588 25.0001V24.3599H31.2432V20.5781H30.537V25.0001H33.6588ZM35.1306 25.0001V20.5781H34.4244V25.0001H35.1306ZM38.3448 25.0001L40.2654 20.5781H39.48L38.0016 24.0431L36.5232 20.5781H35.7444L37.665 25.0001H38.3448ZM44.166 25.0001V24.3599H41.5788V23.0993H43.9614V22.4657H41.5788V21.2183H44.1594V20.5781H40.8726V25.0001H44.166ZM45.7764 25.0001V23.2379H46.4826L47.9346 25.0001H48.8718L47.2746 23.2313C48.1128 23.1851 48.6672 22.6703 48.6672 21.9113C48.6672 21.1127 48.06 20.5781 47.1492 20.5781H45.0702V25.0001H45.7764ZM47.1492 22.5977H45.7764V21.2183H47.1492C47.6376 21.2183 47.961 21.4955 47.961 21.9113C47.961 22.3205 47.6376 22.5977 47.1492 22.5977ZM51.5712 25.0001V23.5217L53.3862 20.5781H52.5744L51.2214 22.7957L49.8618 20.5781H49.0764L50.865 23.5349V25.0001H51.5712Z" fill="#808080"/>
<path d="M11.5 14C11.5967 14 11.6924 14.0045 11.7869 14.0134L16.6324 14.0147C16.8382 14.0147 17 14.1765 17 14.3824C17 14.5882 16.8382 14.75 16.6324 14.75L13.5062 14.7493C14.1311 15.2898 14.5376 16.0766 14.5713 16.9553L16.6324 16.9559C16.8382 16.9559 17 17.1176 17 17.3235C17 17.5294 16.8382 17.6912 16.6324 17.6912L14.5107 17.6916C14.2228 19.0889 12.9796 20.1471 11.5 20.1471L10.276 20.147L14.8824 24.5735C15.0294 24.7206 15.0294 24.9412 14.8971 25.0882C14.8235 25.1765 14.7206 25.2206 14.6324 25.2206C14.5441 25.2206 14.4559 25.1912 14.3824 25.1176L9.1576 20.0828C9.06179 20.0171 9 19.9067 9 19.7794C9 19.5735 9.16176 19.4118 9.36765 19.4118H11.5C12.5679 19.4118 13.4822 18.6843 13.7552 17.6912L9.36765 17.6912C9.16176 17.6912 9 17.5294 9 17.3235C9 17.1176 9.16176 16.9559 9.36765 16.9559L13.834 16.955L13.8329 16.9131C13.7566 15.7803 12.8783 14.872 11.7591 14.7494L9.36765 14.75C9.16176 14.75 9 14.5882 9 14.3824C9.00003 14.3731 9 14.3704 9 14.3676C9 14.1618 9.16176 14 9.36765 14H11.5Z" fill="#146EB4"/>
</svg>
