<svg width="62" height="38" viewBox="0 0 62 38" fill="none" xmlns="http://www.w3.org/2000/svg">
<path d="M59 1H3C1.89543 1 1 1.89543 1 3V35C1 36.1046 1.89543 37 3 37H59C60.1046 37 61 36.1046 61 35V3C61 1.89543 60.1046 1 59 1Z" stroke="#E6E6E6"/>
<path d="M53.1791 13.9658L56 19.567L50.07 25.1709L53.1791 13.9658Z" fill="#008C44"/>
<path d="M51.2258 13.9658L54.0425 19.567L48.1164 25.1709L51.2258 13.9658Z" fill="#F47920"/>
<path d="M6 23.1328L8.81252 13H13.309C14.7143 13 15.653 13.2224 16.1306 13.6809C16.6048 14.1356 16.6961 14.8779 16.4103 15.9213C16.2374 16.5359 15.9747 17.0518 15.6137 17.4594C15.2557 17.8677 14.7835 18.1906 14.2021 18.4281C14.6954 18.5467 15.0092 18.7822 15.1499 19.1353C15.2899 19.4884 15.2737 20.0033 15.1037 20.6783L14.7617 22.0936L14.7607 22.132C14.662 22.5283 14.6912 22.7404 14.852 22.7576L14.7484 23.1328H11.7066C11.7169 22.8944 11.7358 22.6812 11.7559 22.5022C11.778 22.3191 11.8053 22.1771 11.8323 22.0797L12.1159 21.0677C12.2588 20.5415 12.2676 20.1744 12.135 19.963C12.0012 19.746 11.7017 19.6391 11.2287 19.6391H9.9504L8.97556 23.1328H6ZM10.5829 17.3558H11.9521C12.4319 17.3558 12.786 17.2873 13.0043 17.1456C13.2236 17.0027 13.3864 16.7613 13.4819 16.4121C13.5808 16.0571 13.5565 15.8096 13.4146 15.6689C13.2729 15.5259 12.9338 15.4565 12.4007 15.4565H11.1101L10.5829 17.3558Z" fill="#1B3281"/>
<path d="M24.7586 15.6554L22.6852 23.1326H20.1656L20.4752 22.0372C20.0318 22.4728 19.578 22.8036 19.1205 23.015C18.6668 23.2301 18.188 23.3359 17.6838 23.3359C17.2671 23.3359 16.9094 23.2603 16.6213 23.1103C16.3299 22.9607 16.1128 22.7334 15.9667 22.4335C15.8371 22.1711 15.7806 21.8469 15.8027 21.4597C15.826 21.0786 15.9606 20.4358 16.2101 19.5356L17.2846 15.6554H20.0406L18.9683 19.5174C18.8116 20.0827 18.7743 20.48 18.8507 20.6963C18.9302 20.9146 19.1426 21.0273 19.4874 21.0273C19.8346 21.0273 20.1266 20.9016 20.3677 20.645C20.6123 20.3906 20.8011 20.0112 20.943 19.5064L22.0065 15.6554H24.7586Z" fill="#1B3281"/>
<path d="M23.7587 23.1328L26.5683 13H30.4332C31.286 13 31.946 13.0503 32.4167 13.1608C32.8865 13.2666 33.2548 13.4385 33.5286 13.6809C33.8716 13.9979 34.0818 14.3903 34.1682 14.861C34.2495 15.3317 34.2014 15.88 34.0234 16.5239C33.7086 17.6566 33.1568 18.5246 32.3706 19.1311C31.5819 19.7297 30.6061 20.0305 29.4414 20.0305H27.6327L26.7735 23.1328H23.7587ZM28.3175 17.5559H29.2894C29.9178 17.5559 30.3595 17.4783 30.6183 17.3285C30.8688 17.1768 31.0468 16.9072 31.1554 16.5239C31.2639 16.1354 31.2359 15.8638 31.0719 15.7121C30.914 15.5611 30.5105 15.4847 29.865 15.4847H28.8951L28.3175 17.5559Z" fill="#1B3281"/>
<path d="M37.2656 23.1327L37.2935 22.4226C36.8491 22.7553 36.399 23.0067 35.9465 23.1639C35.4959 23.324 35.0161 23.4053 34.5021 23.4053C33.7215 23.4053 33.1772 23.1931 32.8624 22.7826C32.5515 22.3713 32.5004 21.7807 32.7126 21.0274C32.9157 20.2839 33.2769 19.7365 33.7979 19.3866C34.316 19.0325 35.1813 18.7791 36.3953 18.6171C36.5493 18.592 36.7555 18.5719 37.0139 18.5407C37.9113 18.4368 38.4152 18.1977 38.5237 17.8075C38.5802 17.5939 38.5458 17.4362 38.4133 17.3395C38.2853 17.239 38.0462 17.1897 37.7009 17.1897C37.4144 17.1897 37.1838 17.2491 36.9947 17.3726C36.8059 17.4974 36.6649 17.6796 36.5694 17.9359H33.8824C34.125 17.0942 34.6207 16.4582 35.365 16.0329C36.1066 15.6002 37.0843 15.392 38.2954 15.392C38.8648 15.392 39.3748 15.4453 39.8257 15.561C40.2772 15.6717 40.6072 15.8296 40.8214 16.0206C41.0848 16.2591 41.2408 16.5309 41.2852 16.8314C41.3365 17.1312 41.2803 17.561 41.1231 18.1233L39.9673 22.292C39.9303 22.4285 39.9231 22.5503 39.9433 22.661C39.9673 22.7666 40.0135 22.857 40.095 22.9215L40.0329 23.1327H37.2656ZM37.9354 19.794C37.6427 19.9116 37.2624 20.0243 36.7897 20.1481C36.0474 20.3472 35.6297 20.6129 35.5393 20.9417C35.4767 21.1531 35.502 21.3159 35.6054 21.4397C35.7073 21.5573 35.8843 21.6167 36.1338 21.6167C36.5913 21.6167 36.9586 21.501 37.2324 21.2727C37.5069 21.0414 37.7122 20.6782 37.8559 20.1773C37.8809 20.0707 37.903 19.9941 37.9172 19.9369L37.9354 19.794Z" fill="#1B3281"/>
<path d="M40.0539 26.0795L40.6655 23.8664H41.4543C41.7177 23.8664 41.925 23.8143 42.0718 23.7195C42.2209 23.6211 42.3223 23.4551 42.3807 23.2316C42.4099 23.1332 42.4279 23.0295 42.4401 22.9119C42.448 22.7872 42.448 22.6553 42.4401 22.5026L42.0193 15.6559H44.8089L44.7657 20.1927L47.2011 15.6559H49.7953L45.4899 23.0971C45.0012 23.9287 44.6461 24.5001 44.4207 24.812C44.1983 25.1199 43.9871 25.3593 43.7821 25.5214C43.5164 25.7455 43.2198 25.9044 42.8996 25.997C42.5786 26.0915 42.09 26.1387 41.4331 26.1387C41.2441 26.1387 41.0265 26.135 40.7913 26.1227C40.5578 26.1136 40.3085 26.0996 40.0539 26.0795" fill="#1B3281"/>
</svg>
