<svg width="62" height="38" viewBox="0 0 62 38" fill="none" xmlns="http://www.w3.org/2000/svg">
<path d="M59 1H3C1.89543 1 1 1.89543 1 3V35C1 36.1046 1.89543 37 3 37H59C60.1046 37 61 36.1046 61 35V3C61 1.89543 60.1046 1 59 1Z" stroke="#E6E6E6"/>
<path fill-rule="evenodd" clip-rule="evenodd" d="M22.2504 24.9065H19.0483L16.6471 15.5973C16.5331 15.1691 16.2911 14.7905 15.9351 14.6121C15.0468 14.1637 14.0679 13.8068 13 13.6268V13.2684H18.1584C18.8703 13.2684 19.4042 13.8068 19.4932 14.4321L20.7391 21.1472L23.9397 13.2684H27.0528L22.2504 24.9065ZM28.8326 24.9065H25.8085L28.2987 13.2684H31.3228L28.8326 24.9065ZM35.2353 16.4925C35.3243 15.8657 35.8582 15.5073 36.4812 15.5073C37.4601 15.4173 38.5264 15.5973 39.4163 16.0441L39.9503 13.5384C39.0603 13.18 38.0814 13 37.1931 13C34.2579 13 32.1222 14.6121 32.1222 16.8494C32.1222 18.5514 33.635 19.4451 34.7029 19.9835C35.8582 20.5203 36.3032 20.8787 36.2142 21.4156C36.2142 22.2208 35.3243 22.5792 34.4359 22.5792C33.368 22.5792 32.3001 22.3108 31.3228 21.8624L30.7889 24.3697C31.8567 24.8166 33.0121 24.9965 34.08 24.9965C37.3711 25.085 39.4163 23.4745 39.4163 21.0572C39.4163 18.013 35.2353 17.8346 35.2353 16.4925V16.4925ZM50 24.9065L47.5988 13.2684H45.0196C44.4857 13.2684 43.9517 13.6268 43.7737 14.1637L39.3273 24.9065H42.4404L43.0618 23.2061H46.8869L47.2428 24.9065H50ZM45.4646 16.4025L46.3529 20.7887H43.8627L45.4646 16.4025Z" fill="#224DBA"/>
</svg>
