<svg width="24" height="24" viewBox="0 0 24 24" fill="none" xmlns="http://www.w3.org/2000/svg" alt="Account" color="var(--black-30)" text="">
                <path d="M15.9255 13.7621C18.9394 13.7621 21.3459 16.3793 21.4562 19.6018L21.4602 19.833V21.0911C21.4602 21.6264 21.0536 22.0672 20.5314 22.1236L20.4178 22.1297H3.57165C3.03435 22.1297 2.59201 21.7246 2.53541 21.2042L2.5293 21.0911V19.833C2.5293 16.5828 4.86571 13.89 7.84974 13.7665L8.06396 13.7621H15.9255ZM15.9255 15.5623H8.06396C6.09351 15.5623 4.4325 17.3302 4.33364 19.6171L4.32899 19.833L4.32799 20.3288H19.6605V19.833C19.6605 17.5149 18.0592 15.6768 16.1093 15.5675L15.9255 15.5623ZM11.9947 2.60028C14.6914 2.60028 16.8734 4.79535 16.8734 7.49817C16.8734 10.201 14.6914 12.3961 11.9947 12.3961C9.29806 12.3961 7.11604 10.201 7.11604 7.49817C7.11604 4.79535 9.29806 2.60028 11.9947 2.60028ZM11.9947 4.40053C10.2953 4.40053 8.91574 5.78635 8.91574 7.49817C8.91574 9.20999 10.2953 10.5958 11.9947 10.5958C13.6942 10.5958 15.0737 9.20999 15.0737 7.49817C15.0737 5.78635 13.6942 4.40053 11.9947 4.40053Z" fill="currentColor">
                </path>
              </svg>