   <svg style="margin-right: 8px;"
                    xmlns="http://www.w3.org/2000/svg" width="24" height="24"
                    viewBox="0 0 24 24" color="var(--black-30)">
                    <g fill="none" fill-rule="evenodd">
                        <g fill="currentColor" fill-rule="nonzero">
                            <g>
                                <g>
                                    <path
                                        d="M12.69 3.88c.396-.386 1.029-.379 1.415.016.356.364.378.932.068 1.32l-.084.094-8.55 8.36c-.359.35-.915.378-1.305.081l-.093-.081-8.55-8.36c-.395-.386-.402-1.02-.016-1.414.356-.365.923-.399 1.319-.098l.095.082 7.851 7.675 7.85-7.675z"
                                        transform="translate(-16 -95) translate(16 95) translate(1 3) rotate(90 4.84 8.775)">
                                    </path>
                                    <path
                                        d="M21.78 7.775c.552 0 1 .448 1 1 0 .513-.386.936-.883.993l-.117.007H.66c-.552 0-1-.448-1-1 0-.513.386-.936.883-.993l.117-.007h21.12z"
                                        transform="translate(-16 -95) translate(16 95) translate(1 3)">
                                    </path>
                                </g>
                            </g>
                        </g>
                    </g>
                </svg>