<svg width="48" height="48" viewBox="0 0 48 48" fill="none" xmlns="http://www.w3.org/2000/svg" heigth="48" style="min-width: 48px;"><circle cx="24" cy="24" r="23.5" fill="white" stroke="#E6E6E6"></circle><path d="M38.6511 26.2506L37.1362 27.66L37.0864 27.622C37.2593 26.9803 37.4322 26.3356 37.608 25.6939C38.0475 24.097 38.487 22.503 38.9295 20.9061C38.9295 20.9002 38.9295 20.8943 38.9295 20.8914C38.9295 20.8123 38.9705 20.739 39.0408 20.701C39.1463 20.6834 39.1434 20.8035 39.1815 20.8709C39.4071 21.287 39.577 21.7294 39.8408 22.125C40.0898 22.7286 40.3799 23.3293 40.6934 23.9007C40.7315 23.9593 40.755 24.0267 40.755 24.097C40.755 24.2171 40.6934 24.3314 40.5909 24.3959C39.9316 25.0083 39.2928 25.6324 38.6511 26.2506Z" fill="#F07A25"></path><path d="M38.6509 26.247C39.2956 25.6287 39.9343 25.0046 40.5877 24.3951C40.6903 24.3307 40.7518 24.2164 40.7518 24.0962C40.7518 24.0259 40.7313 23.9556 40.6903 23.8999C40.3739 23.3285 40.0867 22.7279 39.8376 22.1243L40.2889 20.6094C40.4764 20.9698 40.6317 21.2657 40.7811 21.5646C41.1591 22.3176 41.5283 23.0766 41.921 23.8237C41.9737 23.897 42.0001 23.9849 42.0001 24.0757C42.0001 24.2252 41.9239 24.3658 41.795 24.4449C40.7225 25.4382 39.6706 26.455 38.6128 27.463C38.5454 27.5509 38.4546 27.6183 38.3491 27.6534C38.4839 27.1934 38.5865 26.7217 38.6509 26.247Z" fill="#0C8D48"></path><path fill-rule="evenodd" clip-rule="evenodd" d="M14.8932 24.1715C15.1159 24.274 15.2595 24.4967 15.2595 24.7399C15.2595 24.8395 15.236 24.9391 15.1891 25.0271C15.0133 25.5984 14.8697 26.1757 14.7115 26.7529C14.6676 27.2979 14.2105 27.7169 13.6655 27.7169C13.6039 27.7169 13.5424 27.7111 13.4809 27.6993C11.0576 27.6993 8.63733 27.7023 6.2141 27.7052C6.02364 27.7052 5.95332 27.6876 6.01485 27.4737C6.63897 25.2644 7.2543 23.0521 7.8667 20.8399C7.88135 20.708 7.9927 20.6055 8.12455 20.6055C8.13627 20.6055 8.15093 20.6055 8.16265 20.6084C10.6562 20.6143 13.1527 20.6113 15.6462 20.6172C15.6814 20.6113 15.7166 20.6055 15.7517 20.6055C16.0301 20.6055 16.2528 20.8311 16.2528 21.1065C16.2528 21.1768 16.2381 21.2442 16.2088 21.3087C16.0213 22.0471 15.8162 22.7796 15.6023 23.5122C15.488 23.8345 15.2243 24.0806 14.8932 24.1715ZM20.7857 23.4682C21.6003 23.4682 22.4149 23.4536 23.2294 23.477C23.247 23.477 23.2646 23.4799 23.2822 23.4799C23.4873 23.4799 23.6543 23.3217 23.669 23.1195C23.8594 22.3929 24.0645 21.6691 24.2433 20.9395C24.2491 20.752 24.4015 20.6055 24.5861 20.6055C24.6125 20.6055 24.6359 20.6084 24.6623 20.6143C24.7971 20.623 24.9318 20.6289 25.0696 20.6289C25.2014 20.6289 25.3362 20.623 25.4681 20.6143C25.6849 20.6025 25.7347 20.667 25.6732 20.8809C25.3655 21.9709 25.0725 23.0668 24.7736 24.1568C24.4865 25.2087 24.1935 26.2606 23.9151 27.3155C23.9092 27.5353 23.7305 27.7111 23.5107 27.7111C23.4785 27.7111 23.4463 27.7081 23.414 27.6993C23.2793 27.6876 23.1445 27.6818 23.0097 27.6818C22.8866 27.6818 22.7635 27.6876 22.6405 27.6964C22.4324 27.7052 22.4002 27.6378 22.4559 27.4444C22.6786 26.6826 22.8778 25.9149 23.0976 25.153C23.162 24.9304 23.1327 24.8395 22.869 24.8425C21.2106 24.8542 19.5492 24.8542 17.8907 24.8454C17.8731 24.8425 17.8556 24.8425 17.838 24.8425C17.6563 24.8425 17.5069 24.9831 17.4981 25.1648C17.3047 25.9325 17.0791 26.6943 16.8769 27.4591C16.8652 27.5997 16.748 27.7052 16.6073 27.7052C16.5897 27.7052 16.5722 27.7023 16.5546 27.6993C16.4139 27.6906 16.2674 27.6876 16.1268 27.6876C15.9803 27.6876 15.8338 27.6935 15.6902 27.7023C15.3884 27.7228 15.4382 27.5675 15.4909 27.38C15.8162 26.1991 16.1414 25.0153 16.4637 23.8345C16.7362 22.8412 17.0087 21.8478 17.2754 20.8545C17.2842 20.7197 17.3955 20.6143 17.5303 20.6143C17.542 20.6143 17.5567 20.6143 17.5684 20.6172C17.8761 20.6318 18.1867 20.6318 18.4943 20.6172C18.7082 20.6084 18.7317 20.6875 18.6789 20.875C18.4592 21.6574 18.257 22.4456 18.0314 23.2279C17.9698 23.436 18.0226 23.477 18.2189 23.4741C19.0745 23.4624 19.9301 23.4682 20.7857 23.4682ZM27.3844 20.6377C27.4869 20.6377 27.5895 20.6377 27.692 20.6377C28.1023 20.6377 28.1052 20.6377 27.9997 21.0157C27.4254 23.0961 26.8511 25.1794 26.2739 27.2598C26.1449 27.7257 26.1391 27.7257 25.6615 27.7257C25.4358 27.7257 25.2073 27.7199 24.9817 27.7286C24.7795 27.7374 24.7385 27.67 24.7941 27.4708C25.3421 25.5193 25.8812 23.5649 26.4204 21.6105C26.4878 21.4054 26.5434 21.1974 26.5844 20.9864C26.5844 20.9805 26.5844 20.9776 26.5844 20.9717C26.5844 20.7754 26.7427 20.6201 26.939 20.6201C26.9742 20.6201 27.0122 20.626 27.0445 20.6377C27.106 20.6436 27.1705 20.6436 27.2349 20.6436C27.2818 20.6406 27.3346 20.6406 27.3844 20.6377ZM35.3192 24.441C35.0819 24.652 34.8445 24.8571 34.613 25.071C33.7252 25.8856 32.8432 26.706 31.9583 27.5265C31.8118 27.6642 31.7356 27.6876 31.6214 27.4854C30.9679 26.3398 30.3028 25.2029 29.6406 24.063C29.6201 24.0337 29.5937 24.0044 29.5673 23.981C29.4677 24.107 29.4032 24.2623 29.3886 24.4234C29.1102 25.4138 28.8407 26.4072 28.5769 27.4034C28.5711 27.5733 28.4334 27.7052 28.2634 27.7052C28.2429 27.7052 28.2224 27.7023 28.2019 27.6993C27.9059 27.6759 27.6041 27.6906 27.3053 27.6964C27.1675 27.6993 27.0914 27.6788 27.1412 27.503C27.7624 25.2615 28.3806 23.017 28.996 20.7725C29.0106 20.749 29.0282 20.7256 29.0487 20.7051C29.1688 20.8135 29.2655 20.9454 29.3329 21.0919C30.1709 22.4866 31.006 23.8814 31.8411 25.279C32.0287 25.5926 32.0228 25.5867 32.3041 25.3464C33.816 24.0572 35.328 22.7679 36.8458 21.4845C37.1505 21.2267 37.4523 20.9659 37.7835 20.6846C37.7893 20.7197 37.7922 20.7578 37.7922 20.7959C37.7922 20.9102 37.7629 21.0245 37.7102 21.1241C37.1359 23.2309 36.5528 25.3347 35.9814 27.4386C35.9726 27.588 35.8466 27.7052 35.6972 27.7052C35.6796 27.7052 35.662 27.7023 35.6474 27.6993C35.5009 27.6906 35.3514 27.6876 35.2049 27.6876C35.0643 27.6876 34.9207 27.6906 34.7801 27.6993C34.5339 27.714 34.5134 27.6232 34.5749 27.4093C34.8357 26.4892 35.0848 25.5633 35.3368 24.6403C35.3514 24.6139 35.3602 24.5846 35.3602 24.5553C35.3602 24.5113 35.3456 24.4703 35.3192 24.441ZM9.23215 22.0002C10.8115 22.0207 12.385 21.9973 13.9614 21.9973C14.2398 21.9973 14.4654 22.2229 14.4654 22.5013C14.4654 22.5716 14.4507 22.6419 14.4214 22.7093C14.3423 23.1488 13.9585 23.4711 13.5102 23.4711C11.9513 23.4682 10.3896 23.4682 8.82779 23.477C8.56994 23.477 8.56115 23.3745 8.62561 23.1752C8.72816 22.8822 8.81314 22.5862 8.8776 22.2844C8.88053 22.1233 9.01239 21.9973 9.17355 21.9973C9.19406 21.9944 9.21164 21.9973 9.23215 22.0002ZM8.37069 24.8454C9.93831 24.8454 11.5089 24.8483 13.0794 24.8542C13.6186 24.8571 13.8325 25.3523 13.516 25.8621C13.3461 26.1493 13.0384 26.3251 12.7044 26.3251C11.166 26.3251 9.63065 26.3075 8.09232 26.328C7.85498 26.331 7.74364 26.2987 7.84033 26.0233C7.94875 25.7127 8.02493 25.3904 8.10404 25.0739C8.12455 24.9421 8.23883 24.8454 8.37069 24.8454Z" fill="#66686C"></path></svg>