<svg width="24" height="24" viewBox="0 0 24 24" xmlns="http://www.w3.org/2000/svg" alt="Bag" color="var(--primary-black)" text="">
                  <path d="M17.5303 2C17.7769 2 18.0091 2.1161 18.157 2.31336L20.9105 5.985C20.9338 6.01451 20.955 6.04575 20.974 6.07848C20.9829 6.09427 20.9915 6.11041 20.9995 6.12681C21.0067 6.14109 21.0133 6.15592 21.0196 6.17098C21.0243 6.18292 21.0289 6.19482 21.0331 6.20682C21.0407 6.22728 21.0472 6.24826 21.0528 6.2696C21.0698 6.33447 21.0787 6.40189 21.0787 6.47005V19.3733C21.0787 20.824 19.9027 22 18.452 22H5.54873C4.09802 22 2.922 20.824 2.922 19.3733V6.47005C2.922 6.36611 2.94267 6.26389 2.98211 6.16909C2.98795 6.15455 2.99438 6.14034 3.00121 6.12636C3.02283 6.08242 3.04873 6.03994 3.07868 6L3.027 6.07799C3.02812 6.07606 3.02925 6.07413 3.03039 6.07221L3.07868 6L5.84366 2.31336C5.99161 2.1161 6.2238 2 6.47038 2H17.5303ZM19.511 7.253H4.488L4.48882 19.3733C4.48882 19.8806 4.84525 20.3047 5.32135 20.4087L5.43324 20.427L5.54873 20.4332H18.452C19.0373 20.4332 19.5119 19.9586 19.5119 19.3733L19.511 7.253ZM15.687 9.37327C16.1196 9.37327 16.4704 9.72402 16.4704 10.1567C16.4704 12.6254 14.4691 14.6267 12.0003 14.6267C9.5316 14.6267 7.53029 12.6254 7.53029 10.1567C7.53029 9.72402 7.88104 9.37327 8.3137 9.37327C8.74637 9.37327 9.09711 9.72402 9.09711 10.1567C9.09711 11.7601 10.3969 13.0599 12.0003 13.0599C13.6037 13.0599 14.9036 11.7601 14.9036 10.1567C14.9036 9.72402 15.2543 9.37327 15.687 9.37327ZM17.1386 3.56682H6.86117L5.27 5.686H18.728L17.1386 3.56682Z" fill="currentColor">
                  </path>
                </svg>