<svg width="16" height="16" viewBox="0 0 16 16" fill="none" xmlns="http://www.w3.org/2000/svg">
          <path fill-rule="evenodd" clip-rule="evenodd" d="M14.1167 3.99997C14.1167 4.29452 13.8779 4.5333 13.5834 4.5333L7.37222 4.5333C7.28443 4.82773 7.12449 5.09871 6.9033 5.3199C6.55323 5.66997 6.07844 5.86663 5.58337 5.86663C5.0883 5.86663 4.6135 5.66997 4.26343 5.3199C4.04225 5.09871 3.8823 4.82773 3.79451 4.5333L2.9167 4.5333C2.62215 4.5333 2.38337 4.29452 2.38337 3.99997C2.38337 3.70541 2.62215 3.46663 2.9167 3.46663L3.79451 3.46663C3.8823 3.1722 4.04225 2.90122 4.26343 2.68003C4.6135 2.32997 5.0883 2.1333 5.58337 2.1333C6.07844 2.1333 6.55323 2.32997 6.9033 2.68003C7.12449 2.90122 7.28443 3.1722 7.37222 3.46663L13.5834 3.46663C13.8779 3.46663 14.1167 3.70542 14.1167 3.99997ZM14.1167 7.99997C14.1167 8.29452 13.8779 8.5333 13.5834 8.5333L12.7056 8.5333C12.6178 8.82773 12.4578 9.09871 12.2366 9.3199C11.8866 9.66997 11.4118 9.86663 10.9167 9.86663C10.4216 9.86663 9.94683 9.66997 9.59677 9.3199C9.37558 9.09871 9.21563 8.82773 9.12784 8.5333L2.9167 8.5333C2.62215 8.5333 2.38337 8.29452 2.38337 7.99997C2.38337 7.70541 2.62215 7.46663 2.9167 7.46663L9.12784 7.46663C9.21563 7.1722 9.37558 6.90122 9.59677 6.68003C9.94683 6.32997 10.4216 6.1333 10.9167 6.1333C11.4118 6.1333 11.8866 6.32997 12.2366 6.68004C12.4578 6.90122 12.6178 7.1722 12.7056 7.46663L13.5834 7.46663C13.8779 7.46663 14.1167 7.70542 14.1167 7.99997ZM14.1167 12C14.1167 12.2945 13.8779 12.5333 13.5834 12.5333L7.37222 12.5333C7.28443 12.8277 7.12449 13.0987 6.9033 13.3199C6.55323 13.67 6.07844 13.8666 5.58337 13.8666C5.08829 13.8666 4.6135 13.67 4.26343 13.3199C4.04225 13.0987 3.8823 12.8277 3.79451 12.5333L2.9167 12.5333C2.62215 12.5333 2.38337 12.2945 2.38337 12C2.38337 11.7054 2.62215 11.4666 2.9167 11.4666L3.79451 11.4666C3.8823 11.1722 4.04225 10.9012 4.26343 10.68C4.6135 10.33 5.08829 10.1333 5.58337 10.1333C6.07844 10.1333 6.55323 10.33 6.9033 10.68C7.12449 10.9012 7.28443 11.1722 7.37222 11.4666L13.5834 11.4666C13.8779 11.4666 14.1167 11.7054 14.1167 12ZM11.7167 7.99997C11.7167 7.78779 11.6324 7.58431 11.4824 7.43428C11.3324 7.28425 11.1289 7.19997 10.9167 7.19997C10.7045 7.19997 10.501 7.28425 10.351 7.43428C10.201 7.58431 10.1167 7.78779 10.1167 7.99997C10.1167 8.21214 10.201 8.41562 10.351 8.56565C10.501 8.71568 10.7045 8.79997 10.9167 8.79997C11.1289 8.79997 11.3324 8.71568 11.4824 8.56565C11.6324 8.41562 11.7167 8.21214 11.7167 7.99997ZM6.38337 3.99997C6.38337 3.78779 6.29908 3.58431 6.14905 3.43428C5.99902 3.28425 5.79554 3.19997 5.58337 3.19997C5.37119 3.19997 5.16771 3.28425 5.01768 3.43428C4.86765 3.58431 4.78337 3.78779 4.78337 3.99997C4.78337 4.21214 4.86765 4.41562 5.01768 4.56565C5.16771 4.71568 5.37119 4.79997 5.58337 4.79997C5.79554 4.79997 5.99902 4.71568 6.14905 4.56565C6.29908 4.41562 6.38337 4.21214 6.38337 3.99997ZM6.38337 12C6.38337 11.7878 6.29908 11.5843 6.14905 11.4343C5.99902 11.2843 5.79554 11.2 5.58337 11.2C5.37119 11.2 5.16771 11.2843 5.01768 11.4343C4.86765 11.5843 4.78337 11.7878 4.78337 12C4.78337 12.2121 4.86765 12.4156 5.01768 12.5657C5.16771 12.7157 5.37119 12.8 5.58337 12.8C5.79554 12.8 5.99902 12.7157 6.14905 12.5657C6.29908 12.4156 6.38337 12.2121 6.38337 12Z" fill="#000000"></path>
        </svg>