<svg width="95" height="33" viewBox="0 0 95 33" fill="none" xmlns="http://www.w3.org/2000/svg">
<g clip-path="url(#clip0_20360_221901)">
<path fill-rule="evenodd" clip-rule="evenodd" d="M7.63179 28.5216C5.84051 28.5216 4.38859 27.0697 4.38859 25.2784C4.38859 23.4871 5.84051 22.0352 7.63179 22.0352C9.42308 22.0352 10.875 23.4871 10.875 25.2784C10.875 27.0697 9.42308 28.5216 7.63179 28.5216ZM7.63179 26.5756C6.91528 26.5756 6.33451 25.9949 6.33451 25.2784C6.33451 24.5618 6.91528 23.9811 7.63179 23.9811C8.34831 23.9811 8.92908 24.5618 8.92908 25.2784C8.92908 25.9949 8.34831 26.5756 7.63179 26.5756Z" fill="#999999"/>
<path fill-rule="evenodd" clip-rule="evenodd" d="M5.08459 9.47955L0.77634 15.9445C0.622486 16.1746 0.497411 16.5862 0.497411 16.8615V23.8668C0.497411 24.5574 1.05671 25.1178 1.74836 25.1178H2.9993H3.09488C3.18041 22.6852 5.1791 20.7397 7.63252 20.7397C10.0859 20.7397 12.0846 22.6852 12.1702 25.1178H14.2578V8.85547H6.25176C5.83909 8.85547 5.31608 9.13582 5.08459 9.47955ZM11.7559 16.3611H4.25025V15.1102L6.75214 11.3573H11.7559V16.3611Z" fill="#999999"/>
<path fill-rule="evenodd" clip-rule="evenodd" d="M34.2849 4.52344H16.9638C16.2797 4.52344 15.7266 5.08826 15.7266 5.78424V25.28H22.5483C22.5483 22.7722 24.581 20.7395 27.0888 20.7395C29.5966 20.7395 31.6292 22.7722 31.6292 25.28H34.2849C34.969 25.28 35.5221 24.7151 35.5221 24.0192V5.78424C35.5221 5.08826 34.969 4.52344 34.2849 4.52344Z" fill="#999999"/>
<path fill-rule="evenodd" clip-rule="evenodd" d="M27.0927 28.5255C25.3014 28.5255 23.8495 27.0736 23.8495 25.2823C23.8495 23.491 25.3014 22.0391 27.0927 22.0391C28.884 22.0391 30.3359 23.491 30.3359 25.2823C30.3359 27.0736 28.884 28.5255 27.0927 28.5255ZM27.0927 26.5796C26.3762 26.5796 25.7954 25.9988 25.7954 25.2823C25.7954 24.5658 26.3762 23.985 27.0927 23.985C27.8092 23.985 28.39 24.5658 28.39 25.2823C28.39 25.9988 27.8092 26.5796 27.0927 26.5796Z" fill="#999999"/>
<path d="M43.5859 13.525H44.5219V9.781H48.6739V9.001H44.5219V5.905H49.0219V5.125H43.5859V13.525Z" fill="#999999"/>
<path d="M50.4386 13.525H51.3506V10.513C51.3506 8.965 52.0946 8.197 53.2586 8.197H53.4386V7.345H53.2946C52.1786 7.345 51.5186 7.849 51.2906 8.797V7.381H50.4386V13.525Z" fill="#999999"/>
<path d="M56.9873 13.669C58.2713 13.669 59.2913 12.889 59.4953 11.785H58.6793C58.4753 12.481 57.9113 12.973 56.9873 12.973C55.7033 12.973 55.1513 12.109 55.1513 11.041V10.825H59.5553V9.913C59.5553 8.401 58.7033 7.237 56.9513 7.237C55.2233 7.237 54.2753 8.341 54.2753 10.009V10.993C54.2753 12.649 55.3913 13.669 56.9873 13.669ZM55.1513 9.937C55.1513 8.809 55.6313 7.933 56.9513 7.933C58.1513 7.933 58.7033 8.749 58.7033 9.841V10.129H55.1513V9.937Z" fill="#999999"/>
<path d="M63.6318 13.669C64.9158 13.669 65.9358 12.889 66.1398 11.785H65.3238C65.1198 12.481 64.5558 12.973 63.6318 12.973C62.3478 12.973 61.7958 12.109 61.7958 11.041V10.825H66.1998V9.913C66.1998 8.401 65.3478 7.237 63.5958 7.237C61.8678 7.237 60.9198 8.341 60.9198 10.009V10.993C60.9198 12.649 62.0358 13.669 63.6318 13.669ZM61.7958 9.937C61.7958 8.809 62.2758 7.933 63.5958 7.933C64.7958 7.933 65.3478 8.749 65.3478 9.841V10.129H61.7958V9.937Z" fill="#999999"/>
<path d="M46.4443 25.6911C48.3403 25.6911 49.7683 24.6351 49.7683 23.0391C49.7683 21.8991 49.1683 21.1671 47.9323 20.8431L45.6282 20.2311C45.1602 20.1111 44.9083 19.8351 44.9083 19.3431C44.9083 18.6111 45.4843 18.2511 46.3723 18.2511C47.4043 18.2511 47.8603 18.7911 47.8603 19.4991V19.6671H49.4083V19.4631C49.4083 17.9871 48.2323 16.9551 46.3723 16.9551C44.4883 16.9551 43.2882 17.9031 43.2882 19.4871C43.2882 20.7471 43.8882 21.3351 45.1603 21.6591L47.3563 22.2231C47.9203 22.3671 48.1483 22.7031 48.1483 23.1711C48.1483 23.9511 47.5003 24.3951 46.5043 24.3951C45.3763 24.3951 44.7643 23.8311 44.7643 23.0511V22.8711H43.1562V23.0871C43.1562 24.7311 44.4643 25.6911 46.4443 25.6911Z" fill="#999999"/>
<path d="M51.1518 25.5231H52.7838V21.8271C52.7838 20.9871 53.2518 20.5551 53.9838 20.5551C54.7758 20.5551 55.1238 21.0711 55.1238 21.7911V25.5231H56.7558V21.5271C56.7558 20.0511 55.9038 19.1391 54.5478 19.1391C53.7438 19.1391 53.1078 19.4871 52.7838 20.0271V16.7631H51.1518V25.5231Z" fill="#999999"/>
<path d="M58.3363 25.5231H59.9683V19.2831H58.3363V25.5231ZM58.2043 17.6511C58.2043 18.1911 58.6003 18.5991 59.1523 18.5991C59.7043 18.5991 60.1003 18.1911 60.1003 17.6511C60.1003 17.1111 59.7043 16.7031 59.1523 16.7031C58.6003 16.7031 58.2043 17.1111 58.2043 17.6511Z" fill="#999999"/>
<path d="M65.0247 19.1391C64.1247 19.1391 63.4887 19.5471 63.1767 20.0271V19.2831H61.6167V27.6111H63.2487V24.8511C63.5727 25.3311 64.2087 25.6671 65.0367 25.6671C66.7167 25.6671 67.6527 24.4191 67.6527 22.9191V21.8871C67.6527 20.4111 66.7407 19.1391 65.0247 19.1391ZM64.6287 20.4591C65.5767 20.4591 66.0207 21.1311 66.0207 21.9591V22.8471C66.0207 23.7231 65.5407 24.3471 64.6167 24.3471C63.8727 24.3471 63.2487 23.8191 63.2487 22.8711V21.9591C63.2487 21.0831 63.8007 20.4591 64.6287 20.4591Z" fill="#999999"/>
<path d="M72.3958 19.1391C71.4958 19.1391 70.8598 19.5471 70.5478 20.0271V19.2831H68.9878V27.6111H70.6198V24.8511C70.9438 25.3311 71.5798 25.6671 72.4078 25.6671C74.0878 25.6671 75.0238 24.4191 75.0238 22.9191V21.8871C75.0238 20.4111 74.1117 19.1391 72.3958 19.1391ZM71.9998 20.4591C72.9478 20.4591 73.3918 21.1311 73.3918 21.9591V22.8471C73.3918 23.7231 72.9118 24.3471 71.9878 24.3471C71.2438 24.3471 70.6198 23.8191 70.6198 22.8711V21.9591C70.6198 21.0831 71.1717 20.4591 71.9998 20.4591Z" fill="#999999"/>
<path d="M76.3948 25.5231H78.0268V19.2831H76.3948V25.5231ZM76.2628 17.6511C76.2628 18.1911 76.6588 18.5991 77.2108 18.5991C77.7628 18.5991 78.1588 18.1911 78.1588 17.6511C78.1588 17.1111 77.7628 16.7031 77.2108 16.7031C76.6588 16.7031 76.2628 17.1111 76.2628 17.6511Z" fill="#999999"/>
<path d="M79.6753 25.5231H81.3073V21.8271C81.3073 20.9871 81.7753 20.5551 82.5073 20.5551C83.2993 20.5551 83.6473 21.0711 83.6473 21.7911V25.5231H85.2793V21.5271C85.2793 20.0271 84.4272 19.1391 83.0713 19.1391C82.1833 19.1391 81.5472 19.4511 81.2352 20.0271V19.2831H79.6753V25.5231Z" fill="#999999"/>
<path d="M89.5477 27.7551C91.2877 27.7551 92.5357 26.7231 92.5357 25.3911V19.2831H90.9757V20.0391C90.7597 19.6191 90.0877 19.1391 89.1277 19.1391C87.4237 19.1391 86.5477 20.3391 86.5477 21.7311V22.6431C86.5477 24.0111 87.4357 25.2351 89.1157 25.2351C89.9197 25.2351 90.6397 24.8151 90.9037 24.3831V25.3671C90.9037 26.0631 90.3757 26.5191 89.5477 26.5191C88.9117 26.5191 88.4197 26.3271 88.2037 25.8951H86.6197C86.8717 27.0711 88.0837 27.7551 89.5477 27.7551ZM89.4997 23.9271C88.6117 23.9271 88.1677 23.3511 88.1677 22.5591V21.8391C88.1677 20.9871 88.6357 20.4471 89.5477 20.4471C90.3277 20.4471 90.9037 20.9991 90.9037 21.8391V22.5591C90.9037 23.4351 90.2677 23.9271 89.4997 23.9271Z" fill="#999999"/>
</g>
<defs>
<clipPath id="clip0_20360_221901">
<rect width="94" height="32" fill="white" transform="translate(0.5 0.523438)"/>
</clipPath>
</defs>
</svg>
