<svg width="48" height="48" viewBox="0 0 48 48" fill="none" xmlns="http://www.w3.org/2000/svg" heigth="48" style="min-width: 48px;"><circle cx="24" cy="24" r="23.5" fill="white" stroke="#E6E6E6"></circle><path d="M23.0263 23.9835V28.1727H21.6963V17.8249H25.2219C26.0724 17.8068 26.8943 18.1296 27.505 18.7207C28.1233 19.2771 28.4716 20.0733 28.4581 20.9042C28.4762 21.7412 28.1278 22.5434 27.505 23.1014C26.8883 23.6895 26.1267 23.9835 25.2219 23.982L23.0263 23.9835ZM23.0263 19.0992V22.7123H25.2551C25.7497 22.7274 26.2263 22.5329 26.5701 22.177C27.2683 21.4984 27.2849 20.381 26.6048 19.6828C26.5927 19.6707 26.5821 19.6586 26.5701 19.6481C26.2308 19.2847 25.7512 19.0856 25.2551 19.0992H23.0263ZM31.5223 20.862C32.5055 20.862 33.2806 21.1244 33.8491 21.6492C34.4176 22.174 34.7011 22.8948 34.7011 23.8086V28.1727H33.4299V27.1895H33.3726C32.8222 27.9993 32.0893 28.4034 31.1755 28.4034C30.3958 28.4034 29.7429 28.1727 29.2181 27.7097C28.7084 27.28 28.4189 26.6436 28.4309 25.9756C28.4309 25.2427 28.7084 24.6606 29.2618 24.2278C29.8153 23.795 30.5542 23.5779 31.4801 23.5779C32.2687 23.5779 32.9202 23.7227 33.4299 24.0107V23.7061C33.4329 23.2507 33.2308 22.8194 32.881 22.5298C32.5296 22.2132 32.0712 22.0397 31.5977 22.0458C30.8558 22.0458 30.2676 22.3594 29.8349 22.9852L28.6647 22.2478C29.3071 21.3235 30.2601 20.862 31.5223 20.862ZM29.8017 26.0057C29.8002 26.3496 29.9645 26.6723 30.242 26.8728C30.5361 27.1035 30.901 27.2272 31.275 27.2197C31.8359 27.2181 32.3743 26.995 32.7709 26.5984C33.2112 26.1837 33.4314 25.6981 33.4314 25.1386C33.0167 24.8084 32.4391 24.6425 31.6972 24.6425C31.1574 24.6425 30.7065 24.7722 30.3461 25.0331C29.9826 25.2985 29.8017 25.6197 29.8017 26.0057ZM41.9997 21.0927L37.5617 31.2942H36.1895L37.8362 27.7248L34.9167 21.0927H36.3614L38.4711 26.1791H38.4997L40.5521 21.0927H41.9997Z" fill="#5F6368"></path><path d="M17.6535 23.0805C17.6535 22.6748 17.6204 22.2707 17.551 21.8711H11.9443V24.1602H15.1548C15.0221 24.8991 14.5939 25.5521 13.968 25.9668V27.4536H15.8847C17.0066 26.4207 17.6535 24.8901 17.6535 23.0805Z" fill="#4285F4"></path><path d="M11.9444 28.8934C13.5489 28.8934 14.9 28.3671 15.8848 27.4578L13.9681 25.9709C13.4343 26.3328 12.7482 26.5394 11.9444 26.5394C10.3942 26.5394 9.07774 25.4944 8.60725 24.0859H6.6333V25.618C7.64214 27.6267 9.69752 28.8934 11.9444 28.8934Z" fill="#34A853"></path><path d="M8.6073 24.0811C8.35848 23.3437 8.35848 22.5429 8.6073 21.8055V20.2734H6.63335C5.78888 21.9533 5.78888 23.9333 6.63335 25.6132L8.6073 24.0811Z" fill="#FBBC04"></path><path d="M11.9444 19.3543C12.7919 19.3407 13.6107 19.6604 14.2245 20.2455L15.9225 18.5491C14.8458 17.5387 13.4207 16.9838 11.9444 17.0004C9.69752 17.0004 7.64214 18.2686 6.6333 20.2757L8.60725 21.8078C9.07774 20.3993 10.3942 19.3543 11.9444 19.3543Z" fill="#EA4335"></path></svg>