<svg width="79" height="33" viewBox="0 0 79 33" fill="none" xmlns="http://www.w3.org/2000/svg">
<g clip-path="url(#clip0_20360_221905)">
<g clip-path="url(#clip1_20360_221905)">
<path fill-rule="evenodd" clip-rule="evenodd" d="M13.5444 1.58764L14.9951 2.6876C15.3919 2.9887 15.8112 3.14234 16.3046 3.17031L18.1162 3.27219C19.1992 3.33321 20.0806 4.08122 20.3271 5.15125L20.7421 6.93825C20.854 7.42714 21.0761 7.81682 21.4395 8.16043L22.7603 9.41661C23.5542 10.169 23.7537 11.3147 23.2627 12.2954L22.4442 13.9336C22.2221 14.3813 22.1439 14.8251 22.202 15.3233L22.4171 17.146C22.547 18.2373 21.9733 19.2448 20.9731 19.6774L19.3069 20.3998C18.8518 20.5976 18.5109 20.8869 18.2396 21.3069L17.2464 22.8429C16.6522 23.7627 15.5714 24.1606 14.5332 23.8428L12.7976 23.3116C12.3223 23.1665 11.8783 23.1665 11.4029 23.3116L9.6673 23.8428C8.62692 24.1606 7.54828 23.7627 6.9541 22.8429L5.96089 21.3069C5.68945 20.8869 5.34876 20.5974 4.8936 20.4L3.22529 19.6772C2.22725 19.2446 1.65347 18.2371 1.78124 17.1458L1.99671 15.3231C2.05717 14.8246 1.97877 14.3813 1.75451 13.9334L0.938354 12.2952C0.44733 11.3143 0.646812 10.1688 1.43838 9.41642L2.76136 8.16025C3.12233 7.81666 3.34424 7.42695 3.45874 6.93806L3.87138 5.15106C4.12023 4.08085 4.99935 3.33305 6.08442 3.27201L7.89392 3.17013C8.38963 3.14216 8.80638 2.98834 9.20344 2.68742L10.6567 1.58745C11.5243 0.929149 12.6744 0.929153 13.5444 1.58764ZM11.1111 13.1998L12.9393 11.3146L14.7676 9.42928C15.2004 8.98331 15.9059 8.98214 16.3412 9.4244C16.7791 9.86666 16.7791 10.5857 16.346 11.0311C14.8632 12.5589 13.3925 14.0967 11.9027 15.6174C11.4676 16.062 10.7594 16.062 10.3242 15.6174L7.85369 13.0944C7.41856 12.6498 7.41856 11.9287 7.85369 11.4837C8.28882 11.0395 8.99432 11.0395 9.42985 11.4837L11.1111 13.1998Z" fill="#999999"/>
<path fill-rule="evenodd" clip-rule="evenodd" d="M5.35796 23.5313L5.51524 23.7745C6.52082 25.3312 8.38849 26.0277 10.1692 25.4837L10.1701 25.4834L10.8026 25.2898L9.07093 31.7526C8.95597 32.1816 8.41692 32.3212 8.10817 32.0019L6.49362 30.3321L4.26047 30.9709C3.83343 31.0931 3.43639 30.7027 3.55135 30.2736L5.35796 23.5313ZM13.0166 25.1724L14.0326 25.4834C15.7584 26.0117 17.5698 25.3718 18.5947 23.9122L20.2993 30.2736C20.4142 30.7027 20.0172 31.0931 19.5902 30.9709L17.357 30.3321L15.7425 32.0019C15.4337 32.3212 14.8947 32.1816 14.7797 31.7526L13.0166 25.1724Z" fill="#999999"/>
</g>
<path d="M38.6815 7.88503C38.6455 6.22903 37.4215 4.95703 35.3695 4.95703C33.1495 4.95703 31.9375 6.49303 31.9375 8.64103V9.97303C31.9375 12.025 33.0895 13.693 35.4295 13.693C37.5775 13.693 38.7655 12.289 38.7655 10.357V9.46903H35.5135V10.249H37.8655V10.465C37.8655 12.085 36.9415 12.937 35.4415 12.937C33.6175 12.937 32.8735 11.653 32.8735 9.99703V8.60503C32.8735 6.92503 33.6535 5.73703 35.3815 5.73703C36.8935 5.73703 37.7575 6.70903 37.7935 7.88503H38.6815Z" fill="#999999"/>
<path d="M42.9893 13.669C44.2733 13.669 45.2933 12.889 45.4973 11.785H44.6813C44.4773 12.481 43.9133 12.973 42.9893 12.973C41.7053 12.973 41.1533 12.109 41.1533 11.041V10.825H45.5573V9.91303C45.5573 8.40103 44.7053 7.23703 42.9533 7.23703C41.2253 7.23703 40.2773 8.34103 40.2773 10.009V10.993C40.2773 12.649 41.3933 13.669 42.9893 13.669ZM41.1533 9.93703C41.1533 8.80903 41.6333 7.93303 42.9533 7.93303C44.1533 7.93303 44.7053 8.74903 44.7053 9.84103V10.129H41.1533V9.93703Z" fill="#999999"/>
<path d="M47.2218 13.525H48.1338V9.91303C48.1338 8.64103 48.9018 8.02903 49.9098 8.02903C51.0138 8.02903 51.4818 8.73703 51.4818 9.78103V13.525H52.3938V9.64903C52.3938 8.17303 51.5178 7.23703 50.1378 7.23703C49.0698 7.23703 48.3738 7.72903 48.0858 8.42503V7.38103H47.2218V13.525Z" fill="#999999"/>
<path d="M59.3285 7.38103H58.4165V10.993C58.4165 12.265 57.6485 12.901 56.6405 12.901C55.5845 12.901 55.1285 12.169 55.1285 11.125V7.38103H54.2165V11.257C54.2165 12.733 55.0685 13.669 56.4125 13.669C57.4805 13.669 58.1765 13.177 58.4645 12.481V13.525H59.3285V7.38103Z" fill="#999999"/>
<path d="M61.3326 13.525H62.2446V7.38103H61.3326V13.525ZM61.2126 5.76103C61.2126 6.08503 61.4406 6.31303 61.7886 6.31303C62.1366 6.31303 62.3646 6.08503 62.3646 5.76103C62.3646 5.43703 62.1366 5.20903 61.7886 5.20903C61.4406 5.20903 61.2126 5.43703 61.2126 5.76103Z" fill="#999999"/>
<path d="M64.2492 13.525H65.1612V9.91303C65.1612 8.64103 65.9292 8.02903 66.9372 8.02903C68.0412 8.02903 68.5092 8.73703 68.5092 9.78103V13.525H69.4212V9.64903C69.4212 8.17303 68.5452 7.23703 67.1652 7.23703C66.0972 7.23703 65.4012 7.72903 65.1132 8.42503V7.38103H64.2492V13.525Z" fill="#999999"/>
<path d="M73.7159 13.669C74.9999 13.669 76.0199 12.889 76.2239 11.785H75.4079C75.2039 12.481 74.6399 12.973 73.7159 12.973C72.4319 12.973 71.8799 12.109 71.8799 11.041V10.825H76.2839V9.91303C76.2839 8.40103 75.4319 7.23703 73.6799 7.23703C71.9519 7.23703 71.0039 8.34103 71.0039 10.009V10.993C71.0039 12.649 72.1199 13.669 73.7159 13.669ZM71.8799 9.93703C71.8799 8.80903 72.3599 7.93303 73.6799 7.93303C74.8799 7.93303 75.4319 8.74903 75.4319 9.84103V10.129H71.8799V9.93703Z" fill="#999999"/>
<path d="M39.2614 20.7111C39.2614 18.5751 37.9894 16.9551 35.5174 16.9551C33.0574 16.9551 31.7734 18.5751 31.7734 20.7111V21.9351C31.7734 24.0711 33.0574 25.6911 35.5174 25.6911C35.9974 25.6911 36.4294 25.6311 36.8254 25.5231L37.5094 26.5671L38.6854 25.7991L38.0614 24.8631C38.8534 24.1911 39.2614 23.1471 39.2614 21.9351V20.7111ZM35.5174 24.2991C34.1134 24.2991 33.4534 23.3511 33.4534 22.0191V20.6271C33.4534 19.2951 34.1134 18.3471 35.5174 18.3471C36.9214 18.3471 37.5814 19.2951 37.5814 20.6271V22.0191C37.5814 22.6191 37.4494 23.1471 37.1734 23.5311L36.5014 22.5231L35.3374 23.2431L35.9974 24.2631C35.8534 24.2871 35.6854 24.2991 35.5174 24.2991Z" fill="#999999"/>
<path d="M46.2374 19.2831H44.6054V23.0391C44.6054 23.8191 44.1734 24.2991 43.4174 24.2991C42.6854 24.2991 42.3134 23.8431 42.3134 23.0511V19.2831H40.6814V23.2791C40.6814 24.6951 41.4614 25.6671 42.8654 25.6671C43.6694 25.6671 44.3894 25.3071 44.6774 24.7791V25.5231H46.2374V19.2831Z" fill="#999999"/>
<path d="M49.9429 25.6671C50.6629 25.6671 51.4549 25.3671 51.7429 24.9471V25.5231H53.3149V21.5391C53.3149 20.0871 52.2469 19.1391 50.6869 19.1391C49.3429 19.1391 48.3709 19.7871 48.0109 20.9991H49.5229C49.6909 20.6631 50.0389 20.4111 50.6029 20.4111C51.2749 20.4111 51.6829 20.8431 51.6829 21.4191V22.2711C51.3949 22.0311 50.8429 21.7431 50.0989 21.7431C48.5989 21.7431 47.5789 22.3671 47.5789 23.7231C47.5789 24.9351 48.5389 25.6671 49.9429 25.6671ZM50.3629 24.5871C49.6789 24.5871 49.1629 24.2511 49.1629 23.6751C49.1629 23.0991 49.6429 22.7871 50.4109 22.7871C51.1429 22.7871 51.6829 23.1111 51.6829 23.6631C51.6829 24.1911 51.0829 24.5871 50.3629 24.5871Z" fill="#999999"/>
<path d="M54.8985 25.5231H56.5305V16.7631H54.8985V25.5231Z" fill="#999999"/>
<path d="M58.2149 25.5231H59.8469V19.2831H58.2149V25.5231ZM58.0829 17.6511C58.0829 18.1911 58.4789 18.5991 59.0309 18.5991C59.5829 18.5991 59.9789 18.1911 59.9789 17.6511C59.9789 17.1111 59.5829 16.7031 59.0309 16.7031C58.4789 16.7031 58.0829 17.1111 58.0829 17.6511Z" fill="#999999"/>
<path d="M63.6673 25.5231H64.7953V24.2031H64.1353C63.7033 24.2031 63.5473 24.0351 63.5473 23.6271V20.6031H64.8793V19.2831H63.5473V17.5791H61.9033V19.2831H61.0153V20.6031H61.9033V23.7471C61.9033 24.8511 62.4673 25.5231 63.6673 25.5231Z" fill="#999999"/>
<path d="M68.6665 27.6111L71.3905 19.2831H69.7705L68.4985 23.7591L67.1545 19.2831H65.5225L67.6825 25.4991L67.0585 27.6111H68.6665Z" fill="#999999"/>
</g>
<defs>
<clipPath id="clip0_20360_221905">
<rect width="78" height="32" fill="white" transform="translate(0.101562 0.523438)"/>
</clipPath>
<clipPath id="clip1_20360_221905">
<rect width="32" height="32" fill="white" transform="translate(-3.89844 0.523438)"/>
</clipPath>
</defs>
</svg>
