  <svg width="17" height="16" viewBox="0 0 17 16" fill="none" xmlns="http://www.w3.org/2000/svg">
                                <path fill-rule="evenodd" clip-rule="evenodd" d="M8.8892 2.90891C8.8892 2.50725 8.56359 2.18164 8.16193 2.18164C7.76027 2.18164 7.43466 2.50725 7.43466 2.90891V7.27255H3.07102C2.66936 7.27255 2.34375 7.59816 2.34375 7.99982C2.34375 8.40148 2.66936 8.7271 3.07102 8.7271H7.43466V13.0907C7.43466 13.4924 7.76027 13.818 8.16193 13.818C8.56359 13.818 8.8892 13.4924 8.8892 13.0907V8.7271H13.2528C13.6545 8.7271 13.9801 8.40148 13.9801 7.99982C13.9801 7.59816 13.6545 7.27255 13.2528 7.27255H8.8892V2.90891Z" fill="#146eb4"></path>
                              </svg>