<svg width="20" height="20" viewBox="0 0 24 24" xmlns="http://www.w3.org/2000/svg"><path d="M12 0C18.6168 0 24 5.3832 24 12C24 18.6168 18.6168 24 12 24C5.3832 24 0 18.6168 0 12C0 5.3832 5.3832 0 12 0Z" fill="#146eb4"></path><path d="M14.7803 6.59467C15.0732 6.88756 15.0732 7.36244 14.7803 7.65533L10.0607 12.375L14.7803 17.0947C15.0732 17.3876 15.0732 17.8624 14.7803 18.1553C14.4874 18.4482 14.0126 18.4482 13.7197 18.1553L8.46967 12.9053C8.17678 12.6124 8.17678 12.1376 8.46967 11.8447L13.7197 6.59467C14.0126 6.30178 14.4874 6.30178 14.7803 6.59467Z" fill="#fff"></path></svg>