<svg xmlns="http://www.w3.org/2000/svg" width="24" height="24" viewBox="0 0 24 24" color="var(--black-12)" style="min-width: 24px;"><g fill="none" fill-rule="evenodd"><g fill="currentColor" fill-rule="nonzero"><g><g><g><path d="M19.238 0C20.54 0 21.6 1.145 21.6 2.553v10.944c0 1.408-1.06 2.553-2.363 2.553H2.364C1.06 16.05 0 14.905 0 13.497V2.553C0 1.145 1.06 0 2.362 0zm1.012 5.472H1.35v8.025c0 .603.454 1.094 1.012 1.094h16.875c.559 0 1.013-.491 1.013-1.094V5.472zM4.725 10.214c.373 0 .675.326.675.73v.729c0 .403-.302.73-.675.73H4.05c-.373 0-.675-.327-.675-.73v-.73c0-.403.302-.73.675-.73h.675zm14.513-8.755H2.363c-.559 0-1.013.491-1.013 1.094v1.46h18.9v-1.46c0-.603-.454-1.094-1.012-1.094z" transform="translate(-116 -244) translate(116 180) translate(0 64) translate(1.2 3.975)"></path></g></g></g></g></g></svg>