<svg width="62" height="38" viewBox="0 0 62 38" fill="none" xmlns="http://www.w3.org/2000/svg">
<path d="M59 1H3C1.89543 1 1 1.89543 1 3V35C1 36.1046 1.89543 37 3 37H59C60.1046 37 61 36.1046 61 35V3C61 1.89543 60.1046 1 59 1Z" stroke="#E6E6E6"/>
<path d="M12.3779 17.28C12.699 16.9624 13.1605 16.8632 13.5819 17.0021L19.5016 18.9672L19.6315 19.0141C19.9671 19.1579 20.2129 19.448 20.2842 19.8009C20.3645 20.1979 20.2441 20.6147 19.9632 20.8926C19.923 20.9323 19.8829 20.9522 19.8428 20.972L17.5953 21.9248L18.8394 23.2547C19 23.4135 19 23.6517 18.8394 23.8105C18.7592 23.8899 18.6588 23.9296 18.5585 23.9296C18.4582 23.9296 18.3578 23.8899 18.2775 23.8105L16.9732 22.5203L16.0301 24.7435C16.01 24.7832 15.9899 24.8229 15.9498 24.8626C15.7291 25.0809 15.4281 25.2 15.1271 25.2C15.0267 25.2 14.9465 25.1802 14.8461 25.1603C14.4448 25.0611 14.1237 24.7832 14.0033 24.3862L12.0769 18.471C11.9364 18.0541 12.0568 17.5976 12.3779 17.28ZM13.2408 17.7365C13.1404 17.7365 13.0602 17.7564 12.9799 17.8358C12.8796 17.935 12.8394 18.074 12.8796 18.2129L14.806 24.1281C14.8461 24.3068 15.0067 24.3465 15.0669 24.3663C15.1271 24.3663 15.2475 24.3862 15.3679 24.3068L16.4916 21.6469C16.5317 21.5477 16.612 21.4683 16.7123 21.4286L19.4414 20.2773C19.5217 20.1582 19.5217 20.0391 19.5217 19.9795C19.5217 19.92 19.4615 19.7811 19.2809 19.7215L13.3612 17.7564C13.321 17.7365 13.2809 17.7365 13.2408 17.7365ZM10.6923 20.4956C10.8528 20.3368 11.0936 20.3368 11.2542 20.4956C11.4147 20.6544 11.4147 20.8926 11.2542 21.0514L9.44815 22.8379C9.36788 22.9173 9.26755 22.957 9.16722 22.957C9.06688 22.957 8.96655 22.9173 8.88628 22.8379C8.72575 22.6791 8.72575 22.4409 8.88628 22.2821L10.6923 20.4956ZM9.96989 17.9549C10.1906 17.9549 10.3712 18.1335 10.3712 18.3519C10.3712 18.5702 10.1906 18.7489 9.96989 18.7489H7.40134C7.1806 18.7489 7 18.5702 7 18.3519C7 18.1335 7.1806 17.9549 7.40134 17.9549H9.96989ZM8.88628 13.8659C9.04682 13.7071 9.28762 13.7071 9.44815 13.8659L11.2542 15.6523C11.4147 15.8111 11.4147 16.0692 11.2542 16.2081C11.1739 16.2875 11.0736 16.3272 10.9732 16.3272C10.8729 16.3272 10.7726 16.2875 10.6923 16.2081L8.88628 14.4217C8.72575 14.2629 8.72575 14.0247 8.88628 13.8659ZM17.3946 13.8659C17.5551 13.7071 17.7959 13.7071 17.9565 13.8659C18.117 14.0247 18.117 14.2629 17.9565 14.4217L16.1505 16.2081C16.0702 16.2875 15.9699 16.3272 15.8695 16.3272C15.7692 16.3272 15.6689 16.2875 15.5886 16.2081C15.4281 16.0493 15.4281 15.8111 15.5886 15.6523L17.3946 13.8659ZM13.4214 12C13.6421 12 13.8227 12.1786 13.8227 12.397V14.9377C13.8227 15.1561 13.6421 15.3347 13.4214 15.3347C13.2006 15.3347 13.02 15.1561 13.02 14.9377V12.397C13.02 12.1786 13.2006 12 13.4214 12Z" fill="#146EB4"/>
<path d="M25.9725 17.5997V14.4251L28.6455 17.5997H29.2461V13.1777H28.5333V16.4051L25.8669 13.1777H25.2663V17.5997H25.9725ZM33.5823 17.5997V16.9595H30.9951V15.6989H33.3777V15.0653H30.9951V13.8179H33.5757V13.1777H30.2889V17.5997H33.5823ZM36.3807 17.5997V13.8179H37.9383V13.1777H34.1169V13.8179H35.6679V17.5997H36.3807Z" fill="#EE741F"/>
<path d="M27.4179 24.5994C28.3551 24.5994 28.8171 24.0978 28.8171 23.385C28.8171 22.7646 28.4145 22.395 27.9855 22.3488V22.3224C28.3089 22.2696 28.6851 21.933 28.6851 21.372C28.6851 20.6592 28.1835 20.1774 27.3717 20.1774H25.2663V24.5994H27.4179ZM27.2925 22.0914H25.9725V20.7846H27.2991C27.7083 20.7846 27.9987 21.0354 27.9987 21.4116C27.9987 21.8208 27.7149 22.0914 27.2925 22.0914ZM27.3453 23.9922H25.9725V22.659H27.3651C27.7941 22.659 28.0911 22.9164 28.0911 23.319C28.0911 23.7216 27.8205 23.9922 27.3453 23.9922ZM29.9259 24.5994L30.3615 23.5698H32.5131L32.9487 24.5994H33.7143L31.7673 20.1774H31.1073L29.1603 24.5994H29.9259ZM32.2359 22.923H30.6387L31.4373 21.042L32.2359 22.923ZM34.9749 24.5994V21.4248L37.6479 24.5994H38.2485V20.1774H37.5357V23.4048L34.8693 20.1774H34.2687V24.5994H34.9749ZM39.9975 24.5994V22.7382H40.2879L42.1821 24.5994H43.1457L40.7895 22.395L43.0005 20.1774H42.1227L40.2285 22.0914H39.9975V20.1774H39.2913V24.5994H39.9975ZM44.4591 24.5994V20.1774H43.7529V24.5994H44.4591ZM46.208 24.5994V21.4248L48.8811 24.5994H49.4817V20.1774H48.7689V23.4048L46.1025 20.1774H45.5019V24.5994H46.208ZM52.6431 24.6918C53.9565 24.6918 54.8738 23.6952 54.8738 22.395C54.8738 22.3158 54.8673 22.2102 54.8607 22.0914H52.4253V22.7382H54.1809C54.0489 23.5038 53.4747 24.0252 52.6629 24.0252C51.7455 24.0252 51.0393 23.319 51.0393 22.3884C51.0393 21.4644 51.7323 20.7516 52.6233 20.7516C53.2173 20.7516 53.7783 20.9826 54.0885 21.6162L54.7287 21.3918C54.4119 20.5404 53.5671 20.085 52.6233 20.085C51.3297 20.085 50.3199 21.1014 50.3199 22.3884C50.3199 23.682 51.3363 24.6918 52.6431 24.6918Z" fill="#808080"/>
</svg>
