<svg width="62" height="38" viewBox="0 0 62 38" fill="none" xmlns="http://www.w3.org/2000/svg">
<path fill-rule="evenodd" clip-rule="evenodd" d="M37.5984 10C42.7907 10 47 14.2533 47 19.5C47 24.7467 42.7907 29 37.5984 29C35.2717 29 33.1424 28.146 31.5008 26.7312C29.8585 28.1456 27.7288 29 25.4016 29C20.2093 29 16 24.7467 16 19.5C16 14.2533 20.2093 10 25.4016 10C27.7288 10 29.8585 10.8544 31.5002 12.2696C33.1424 10.854 35.2717 10 37.5984 10Z" fill="#FF5E00"/>
<path fill-rule="evenodd" clip-rule="evenodd" d="M25.4016 10C27.7288 10 29.8585 10.8544 31.5002 12.2696C29.4789 14.0112 28.1967 16.6043 28.1967 19.5C28.1967 22.3957 29.4789 24.9888 31.5008 26.7312C29.8585 28.1456 27.7288 29 25.4016 29C20.2093 29 16 24.7467 16 19.5C16 14.2533 20.2093 10 25.4016 10Z" fill="#ED0006"/>
<path fill-rule="evenodd" clip-rule="evenodd" d="M37.5984 10C42.7907 10 47 14.2533 47 19.5C47 24.7467 42.7907 29 37.5984 29C35.2712 29 33.1415 28.1456 31.4998 26.7304C33.5216 24.9879 34.8033 22.3952 34.8033 19.5C34.8033 16.6048 33.5216 14.0121 31.5002 12.2696C33.1415 10.8544 35.2712 10 37.5984 10V10Z" fill="#F9A000"/>
<path d="M59 1H3C1.89543 1 1 1.89543 1 3V35C1 36.1046 1.89543 37 3 37H59C60.1046 37 61 36.1046 61 35V3C61 1.89543 60.1046 1 59 1Z" stroke="#E6E6E6"/>
</svg>
