<svg width="48" height="48" viewBox="0 0 48 48" fill="none" xmlns="http://www.w3.org/2000/svg" heigth="48" style="min-width: 48px;"><circle cx="24" cy="24" r="23.5" fill="white" stroke="#E6E6E6"></circle><g clip-path="url(#clip0_18115_361270)"><path d="M39.8843 21.968C39.594 21.138 38.8029 20.5419 37.8737 20.5419H37.8543C37.2502 20.5419 36.7058 20.7934 36.3183 21.197C35.9301 20.7934 35.3857 20.5419 34.7823 20.5419H34.7628C34.2319 20.5419 33.7465 20.7364 33.3737 21.0582V20.8946C33.361 20.7317 33.2269 20.6036 33.0613 20.6036H31.6359C31.4616 20.6036 31.3208 20.7444 31.3208 20.9194V28.6596C31.3208 28.8346 31.4616 28.9754 31.6359 28.9754H33.0613C33.2202 28.9754 33.3509 28.8568 33.3717 28.7032L33.371 23.1466C33.371 23.1272 33.3717 23.1091 33.3737 23.091C33.3965 22.8429 33.5782 22.6391 33.8651 22.6136H33.9181H34.0676H34.1279C34.2479 22.6243 34.3492 22.6666 34.429 22.7303C34.553 22.8288 34.6221 22.9803 34.6221 23.1466L34.6274 28.6757C34.6274 28.8507 34.7689 28.9922 34.9425 28.9922H36.3679C36.5362 28.9922 36.6729 28.8581 36.681 28.6912L36.6803 23.1392C36.6796 22.9569 36.7641 22.7919 36.9123 22.6941C36.9854 22.6471 37.0732 22.6156 37.1744 22.6062H37.2274H37.3769H37.4372C37.7456 22.6331 37.932 22.867 37.9314 23.1392L37.9367 28.661C37.9367 28.836 38.0782 28.9768 38.2518 28.9768H39.6772C39.8508 28.9768 39.9923 28.836 39.9923 28.661V22.7222C39.9923 22.3173 39.9467 22.145 39.8843 21.968Z" fill="#54C1F0"></path><path d="M30.2349 20.6238H29.4196V19.303C29.4196 19.3017 29.4196 19.3003 29.4196 19.299C29.4196 19.1401 29.2909 19.0114 29.132 19.0114C29.1132 19.0114 29.0951 19.0141 29.0777 19.0174C28.174 19.2655 28.355 20.5172 26.705 20.6238H26.6681H26.5448C26.5206 20.6238 26.4979 20.6272 26.4757 20.6318C26.3349 20.6634 26.229 20.7887 26.229 20.9389V22.3643C26.229 22.5379 26.3705 22.6794 26.5448 22.6794H27.405L27.4036 28.7234C27.4036 28.8957 27.5431 29.0352 27.7154 29.0352H29.1246C29.2963 29.0352 29.4357 28.8957 29.4357 28.7234L29.4364 22.6794H30.2349C30.4085 22.6794 30.55 22.5379 30.55 22.3643V20.9389C30.55 20.7653 30.4085 20.6238 30.2349 20.6238Z" fill="#54C1F0"></path><path d="M25.1064 20.6254H23.681C23.5074 20.6254 23.3666 20.7669 23.3666 20.9405V23.8878C23.3632 24.0701 23.2157 24.2163 23.0327 24.2163H22.436C22.251 24.2163 22.1015 24.0674 22.1015 23.8824L22.0961 20.9405C22.0961 20.7669 21.9546 20.6254 21.781 20.6254H20.3556C20.1813 20.6254 20.0405 20.7669 20.0405 20.9405V24.1707C20.0405 25.3976 20.9155 26.2725 22.143 26.2725C22.143 26.2725 23.0642 26.2725 23.0924 26.2779C23.2586 26.2967 23.388 26.4361 23.388 26.6077C23.388 26.7774 23.2613 26.9162 23.0971 26.9369C23.089 26.9383 23.0816 26.9403 23.0729 26.9416L20.9885 26.949C20.8142 26.949 20.6734 27.0905 20.6734 27.2641V28.6888C20.6734 28.8631 20.8142 29.0039 20.9885 29.0039H23.319C24.5472 29.0039 25.4215 28.1297 25.4215 26.9021V20.9405C25.4215 20.7669 25.2807 20.6254 25.1064 20.6254Z" fill="#233266"></path><path d="M11.31 23.2344V23.8995V24.1141C11.31 24.2984 11.1605 24.4486 10.9761 24.4486L10.0717 24.4493V22.6867H10.9761C11.1605 22.6867 11.31 22.8355 11.31 23.0206V23.2344ZM11.4354 20.6224H8.31982C8.14885 20.6224 8.01074 20.7612 8.01074 20.9315V22.328C8.01074 22.3307 8.01141 22.3334 8.01141 22.336C8.01141 22.3428 8.01074 22.3495 8.01074 22.3555V26.8347V28.6764C8.01074 28.848 8.13947 28.9882 8.29903 28.9922H8.32585H9.75121C9.92485 28.9922 10.0663 28.8514 10.0663 28.6771L10.0717 26.5109H11.4354C12.5764 26.5109 13.3716 25.7191 13.3716 24.5733V22.5627C13.3716 21.4169 12.5764 20.6224 11.4354 20.6224Z" fill="#233266"></path><path d="M17.2239 26.5834V26.806C17.2239 26.8241 17.2212 26.8416 17.2185 26.8583C17.2152 26.8744 17.2105 26.8898 17.2051 26.9046C17.1609 27.0293 17.0362 27.1198 16.888 27.1198H16.2947C16.1096 27.1198 15.9588 26.979 15.9588 26.806V26.5372C15.9588 26.5338 15.9581 26.5305 15.9581 26.5271L15.9588 25.8118V25.8104V25.7313V25.5878L15.9595 25.5858C15.9601 25.4135 16.1096 25.2741 16.2947 25.2741H16.888C17.0737 25.2741 17.2239 25.4142 17.2239 25.5878V26.5834ZM16.9973 20.6333H15.0195C14.8445 20.6333 14.7031 20.766 14.7031 20.9289V21.4834C14.7031 21.4867 14.7037 21.4908 14.7037 21.4941C14.7037 21.4981 14.7031 21.5022 14.7031 21.5062V22.2658C14.7031 22.4381 14.8532 22.5789 15.0383 22.5789H16.9215C17.0704 22.6024 17.1884 22.711 17.2051 22.8806V23.0643C17.1884 23.2259 17.0717 23.3439 16.9296 23.3573H15.997C14.7567 23.3573 13.873 24.1812 13.873 25.3384V26.9535V26.9958C13.873 28.1462 14.6327 28.9648 15.8643 28.9648H18.4488C18.9128 28.9648 19.2889 28.6135 19.2889 28.1811V22.7726C19.2889 21.4613 18.6131 20.6333 16.9973 20.6333Z" fill="#233266"></path></g><defs><clipPath id="clip0_18115_361270"><rect width="32" height="10.0439" fill="white" transform="translate(8 19)"></rect></clipPath></defs></svg>