<svg width="48" height="48" viewBox="0 0 48 48" fill="none" xmlns="http://www.w3.org/2000/svg" heigth="48" style="min-width: 48px;"><circle cx="24" cy="24" r="23.5" fill="white" stroke="#E6E6E6"></circle><path d="M8.43174 20.3239C10.462 11.7258 19.078 6.40149 27.6761 8.43174C36.2742 10.462 41.5985 19.078 39.5683 27.6761C37.538 36.2742 28.922 41.5985 20.3239 39.5683C11.7258 37.538 6.40149 28.922 8.43174 20.3239ZM21.163 12.498L19.465 13.0342C19.1969 13.1236 19.1075 13.481 19.2862 13.6598L24.6484 18.7538H16.5158C16.2477 18.7538 16.069 18.9325 16.069 19.2006V20.0943C16.069 20.7199 16.6052 21.2561 17.2308 21.2561H18.4819V25.5458C18.4819 28.7631 20.1799 30.6398 23.0397 30.6398C23.9334 30.6398 24.6483 30.5504 25.542 30.193V33.0527C25.542 33.8571 26.1676 34.4826 26.9719 34.4826H28.2231C28.4912 34.4826 28.7593 34.2145 28.7593 33.9464V21.1667H30.8148C31.0829 21.1667 31.2616 20.988 31.2616 20.7199V19.8262C31.2616 19.2006 30.7254 18.6644 30.0998 18.6644H27.955L23.0397 13.0342C22.5929 12.498 21.8779 12.3192 21.163 12.498ZM25.542 21.2561V27.5119C25.0058 27.78 24.2909 27.8694 23.7547 27.8694C22.3248 27.8694 21.6098 27.1544 21.6098 25.5458V21.2561H25.542Z" fill="#5F259F"></path></svg>