<svg width="20" height="20" viewBox="0 0 24 24" fill="none" xmlns="http://www.w3.org/2000/svg" style="min-width: 20px;"><g clip-path="url(#clip0_11931_187443)"><path d="M16.2183 15.7484H7.78169C7.38794 15.7484 7.07861 16.0577 7.07861 16.4515V23.2945C7.07861 23.5476 7.21919 23.7866 7.44419 23.9132C7.68316 24.0398 7.95039 24.0257 8.1754 23.885L12 21.3259L15.8246 23.8851C16.0496 24.0257 16.3169 24.0398 16.5558 23.9132C16.7808 23.7866 16.9214 23.5477 16.9214 23.2945V16.4514C16.9214 16.0577 16.6121 15.7484 16.2183 15.7484Z" fill="#EE741F"></path><path d="M16.9214 16.4514V23.2945C16.9214 23.5476 16.7808 23.7866 16.5558 23.9132C16.3169 24.0398 16.0496 24.0257 15.8246 23.885L12 21.3259V15.7484H16.2183C16.6121 15.7484 16.9214 16.0577 16.9214 16.4514Z" fill="#EE741F"></path><path fill-rule="evenodd" clip-rule="evenodd" d="M2.86035 9.13974C2.86035 4.10578 6.96609 0 12 0C12 0 12.0001 0 12.0001 0C12.6293 1.42598e-06 13.244 0.0641535 13.8381 0.18625C17.5507 0.949337 20.4543 3.97579 21.0341 7.75059C21.1037 8.20373 21.1398 8.66765 21.1398 9.13973C21.1398 14.1736 17.0341 18.2795 12.0001 18.2795V18.2794C12.0001 18.2794 12 18.2794 12 18.2794C6.96609 18.2794 2.86035 14.1737 2.86035 9.13974Z" fill="#EE741F"></path><path fill-rule="evenodd" clip-rule="evenodd" d="M15.22 10.3068L17.3995 8.22568C17.5962 8.0289 17.6666 7.74765 17.5964 7.49448C17.512 7.2414 17.287 7.04452 17.02 7.01635L13.9825 6.58046L12.6327 3.89485C12.5062 3.65579 12.253 3.54333 12 3.54333V3.54343C12 3.54343 11.9999 3.54343 11.9999 3.54343C11.7469 3.54343 11.4937 3.65589 11.3672 3.89495L10.0174 6.58056L6.97994 7.01645C6.71289 7.04462 6.48799 7.2415 6.40357 7.49457C6.33321 7.74765 6.40357 8.0289 6.6003 8.22568L8.7798 10.3068L8.25972 13.2315C8.21749 13.4986 8.32994 13.7658 8.54088 13.9206C8.75168 14.0893 9.04708 14.1034 9.28614 13.9768L12 12.5847L12 12.5847V12.5847L14.7137 13.9768C14.9528 14.1034 15.2482 14.0893 15.459 13.9206C15.6699 13.7658 15.7824 13.4986 15.7401 13.2315L15.22 10.3068Z" fill="white"></path></g><defs><clipPath id="clip0_11931_187443"><rect width="24" height="24" fill="white"></rect></clipPath></defs></svg>