<svg width="20" height="20" viewBox="0 0 24 24" fill="#146eb4" xmlns="http://www.w3.org/2000/svg"><path d="M12 0C5.3832 0 0 5.3832 0 12C0 18.6168 5.3832 24 12 24C18.6168 24 24 18.6168 24 12C24 5.3832 18.6168 0 12 0Z" fill="var(--primary)"></path><path fill-rule="evenodd" clip-rule="evenodd" d="M9.21967 17.4053C8.92678 17.1124 8.92678 16.6376 9.21967 16.3447L13.9393 11.625L9.21967 6.90533C8.92678 6.61244 8.92678 6.13756 9.21967 5.84467C9.51256 5.55178 9.98744 5.55178 10.2803 5.84467L15.5303 11.0947C15.8232 11.3876 15.8232 11.8624 15.5303 12.1553L10.2803 17.4053C9.98744 17.6982 9.51256 17.6982 9.21967 17.4053Z" fill="#fff"></path></svg>