<svg width="24" height="24" viewBox="0 0 24 24" fill="none" xmlns="http://www.w3.org/2000/svg" color="var(--primary-black)" alt="Search" text="">
                <path fill-rule="evenodd" clip-rule="evenodd" d="M3.875 11C3.875 7.06497 7.06497 3.875 11 3.875C14.935 3.875 18.125 7.06497 18.125 11C18.125 12.9232 17.363 14.6685 16.1245 15.9503C16.092 15.9747 16.0609 16.0017 16.0313 16.0313C16.0017 16.0609 15.9747 16.092 15.9503 16.1245C14.6685 17.363 12.9232 18.125 11 18.125C7.06497 18.125 3.875 14.935 3.875 11ZM16.6265 17.8639C15.0951 19.1207 13.1356 19.875 11 19.875C6.09847 19.875 2.125 15.9015 2.125 11C2.125 6.09847 6.09847 2.125 11 2.125C15.9015 2.125 19.875 6.09847 19.875 11C19.875 13.1356 19.1207 15.0951 17.8639 16.6265L21.6187 20.3813C21.9605 20.723 21.9605 21.277 21.6187 21.6187C21.277 21.9605 20.723 21.9605 20.3813 21.6187L16.6265 17.8639Z" fill="currentColor">
                </path>
              </svg>