<svg width="16" height="16" viewBox="0 0 16 16" fill="none" xmlns="http://www.w3.org/2000/svg">
          <path fill-rule="evenodd" clip-rule="evenodd" d="M15.0042 5.40684C15.232 5.63465 15.6013 5.63464 15.8291 5.40684C16.057 5.17903 16.057 4.80968 15.8291 4.58188L12.7887 1.54146C12.5609 1.31365 12.1915 1.31365 11.9637 1.54146L8.68758 4.81761C8.45977 5.04542 8.45977 5.41476 8.68758 5.64257C8.91538 5.87037 9.28473 5.87037 9.51254 5.64257L11.7929 3.36218L11.7929 12.6206C11.7929 12.9428 12.0541 13.2039 12.3763 13.2039C12.6984 13.2039 12.9596 12.9428 12.9596 12.6206L12.9596 3.36227L15.0042 5.40684ZM2.82044 10.501L4.86503 12.5456L4.86503 3.28727C4.86503 2.96511 5.1262 2.70394 5.44837 2.70394C5.77053 2.70394 6.0317 2.96511 6.0317 3.28727L6.0317 12.5457L8.31209 10.2653C8.5399 10.0375 8.90924 10.0375 9.13705 10.2653C9.36485 10.4931 9.36485 10.8625 9.13705 11.0903L5.86089 14.3664C5.63309 14.5942 5.26375 14.5942 5.03594 14.3664L1.99548 11.326C1.76768 11.0982 1.76767 10.7288 1.99548 10.501C2.22328 10.2732 2.59263 10.2732 2.82044 10.501Z" fill="#000000"></path>
        </svg>