<svg width="24" height="24" viewBox="0 0 25 24" fill="none" xmlns="http://www.w3.org/2000/svg" color="#146eb4" style="min-width: 24px;"><path fill-rule="evenodd" clip-rule="evenodd" d="M1.79948 6.00001C1.79948 5.33727 2.33682 4.80001 2.99967 4.80001H21.0026C21.6655 4.80001 22.2028 5.33727 22.2028 6.00001V18C22.2028 18.6628 21.6655 19.2 21.0026 19.2H2.99967C2.33682 19.2 1.79948 18.6628 1.79948 18V6.00001ZM2.99967 3.20001C1.45303 3.20001 0.199219 4.45361 0.199219 6.00001V18C0.199219 19.5464 1.45303 20.8 2.99967 20.8H21.0026C22.5493 20.8 23.8031 19.5464 23.8031 18V6.00001C23.8031 4.45361 22.5493 3.20001 21.0026 3.20001H2.99967ZM10.831 9.23C10.831 8.85445 10.5265 8.55 10.1509 8.55C9.77531 8.55 9.47081 8.85445 9.47081 9.23V12.25C9.47081 13.37 8.86071 14.1 7.95056 14.1C6.99041 14.1 6.3603 13.37 6.3603 12.25V9.23C6.3603 8.85445 6.05581 8.55 5.68019 8.55C5.30458 8.55 5.00008 8.85445 5.00008 9.23V12.25C5.00008 14.13 6.18027 15.4 7.95056 15.4C9.68084 15.4 10.831 14.13 10.831 12.25V9.23ZM12.6707 8.55C12.1183 8.55 11.6705 8.99772 11.6705 9.55V14.57C11.6705 14.9456 11.975 15.25 12.3507 15.25C12.7263 15.25 13.0308 14.9456 13.0308 14.57V13.06H14.7911C16.3313 13.06 17.2715 12.16 17.2715 10.8C17.2715 9.46 16.3313 8.55 14.7911 8.55H12.6707ZM13.0308 11.83V9.78H14.7911C15.5212 9.78 15.9212 10.2 15.9212 10.8C15.9212 11.42 15.5212 11.83 14.7911 11.83H13.0308ZM19.1822 14.57C19.1822 14.9456 18.8777 15.25 18.502 15.25C18.1264 15.25 17.8219 14.9456 17.8219 14.57V9.23C17.8219 8.85445 18.1264 8.55 18.502 8.55C18.8777 8.55 19.1822 8.85445 19.1822 9.23V14.57Z" fill="#146eb4"></path></svg>